<svg width="132" height="127" viewBox="0 0 132 127" fill="none" xmlns="http://www.w3.org/2000/svg">
<path fill-rule="evenodd" clip-rule="evenodd" d="M0.147705 25.1472C7.22637 16.1434 17.3977 7.85266 30.2573 0.741211C45.4337 32.4017 40.6426 77.1166 0.147705 86.0339V25.1472Z" fill="#FFECB3"/>
<path fill-rule="evenodd" clip-rule="evenodd" d="M0.147705 86.1018C1.19316 83.6066 2.34607 80.3391 3.59733 76.5197C5.47241 75.4843 7.41943 74.8322 8.90747 74.4397C9.67243 74.2385 10.3163 74.1055 10.7671 74.0236C10.992 73.9817 11.1687 73.9534 11.2889 73.9352C11.3481 73.9261 11.3936 73.9197 11.4237 73.9152L11.4665 73.9097C11.7214 73.8779 11.9027 73.6465 11.8708 73.3916C11.8389 73.1375 11.6076 72.9563 11.3526 72.9881C11.3235 72.9936 7.71631 73.4362 4.00714 75.2593C4.50163 73.7276 5.01161 72.1157 5.53616 70.4373C5.90407 69.258 6.27836 68.045 6.65993 66.8047C7.68899 65.5643 9.56771 64.0808 11.9009 62.9206C14.2786 61.7359 17.1272 60.8789 20.0523 60.8807C20.9693 60.8798 21.8946 60.9645 22.8162 61.1476C23.0684 61.1976 23.3125 61.0346 23.3626 60.7824C23.4127 60.531 23.2497 60.287 22.9974 60.2369C22.0121 60.0411 21.0258 59.9518 20.0523 59.9518C16.946 59.9518 13.9681 60.8543 11.4865 62.0892C9.80995 62.9261 8.36107 63.9105 7.2464 64.8922C8.25543 61.5938 9.30817 58.1214 10.3992 54.5561C12.613 52.6983 16.375 50.6448 20.5832 49.0056C24.857 47.3372 29.6025 46.0887 33.6741 45.8373C33.93 45.8209 34.1249 45.6005 34.1094 45.3446C34.093 45.0878 33.8727 44.8939 33.6168 44.9103C29.404 45.1725 24.5911 46.4466 20.2453 48.1404C16.5644 49.5775 13.2268 51.3096 10.8709 53.0152C12.4737 47.7934 14.1566 42.4014 15.9033 37.0903C16.6491 36.6122 17.4514 35.9219 18.3867 35.1442C19.8811 33.9002 21.7024 32.4313 24.0219 31.2747C26.3423 30.1173 29.1563 29.2676 32.6606 29.2667C32.9966 29.2667 33.3381 29.274 33.686 29.2904C33.9428 29.3022 34.1595 29.1046 34.1723 28.8478C34.1832 28.5919 33.9856 28.3743 33.7288 28.3624C33.3672 28.3451 33.0103 28.3378 32.6606 28.3378C27.7848 28.336 24.1303 29.9297 21.3555 31.7365C19.9667 32.6398 18.7946 33.5951 17.7929 34.4293C17.2884 34.85 16.8258 35.2389 16.4041 35.5749C18.1417 30.3468 19.9412 25.2215 21.7853 20.445C22.8681 19.6236 24.1039 18.8031 25.3779 18.1438C26.6929 17.4626 28.048 16.9562 29.3038 16.785C29.5579 16.7495 29.7355 16.5155 29.7 16.2614C29.6654 16.0073 29.4313 15.8297 29.1772 15.8643C27.7712 16.0583 26.3296 16.6065 24.9508 17.3187C24.0674 17.7758 23.2105 18.3022 22.4073 18.8513C24.388 13.8354 26.4188 9.24921 28.4778 5.39433C28.598 5.16757 28.5124 4.88617 28.2866 4.76596C28.0607 4.64484 27.7784 4.73045 27.6582 4.95629C25.4863 9.02518 23.3553 13.8754 21.2835 19.171C20.8537 18.4579 20.4776 17.6001 20.1725 16.7923C19.9649 16.2441 19.7873 15.7186 19.6398 15.2724C19.4913 14.8243 19.3747 14.461 19.28 14.2124C19.1871 13.9729 18.9185 13.8536 18.679 13.9455C18.4395 14.0384 18.3202 14.3071 18.4131 14.5466C18.4905 14.7469 18.6098 15.1149 18.7582 15.5638C18.9822 16.2404 19.2791 17.1138 19.6534 17.9889C19.9913 18.7776 20.3901 19.5699 20.871 20.2319C18.9868 25.1204 17.1536 30.3604 15.3851 35.6988C13.2978 32.3102 10.7224 27.714 9.04134 22.6889C8.95938 22.4449 8.6971 22.3146 8.45304 22.3957C8.20989 22.4767 8.07967 22.7399 8.16072 22.9831C9.99208 28.4562 12.8398 33.383 15.0053 36.849C13.7741 40.5937 12.5757 44.3766 11.4136 48.1104C10.8709 49.857 10.3363 51.5928 9.80995 53.3076C8.35378 51.4325 6.26743 48.4901 4.30948 45.4749C3.20028 43.7664 2.13206 42.0334 1.24051 40.4562C0.835263 39.7404 0.466441 39.0555 0.147705 38.4217V40.4061C0.240594 40.5736 0.335304 40.743 0.431835 40.9142C3.08463 45.6024 7.22181 51.5627 9.47937 54.3885C8.33101 58.1396 7.22637 61.7859 6.1709 65.231C5.88768 64.6755 5.52523 64.0745 5.09721 63.4361C3.88875 61.6402 2.14936 59.5593 0.147705 57.554V58.8818C0.637647 59.3918 1.10847 59.9036 1.55561 60.4117C2.64659 61.6521 3.5946 62.866 4.32678 63.9552C5.01343 64.9751 5.50884 65.8903 5.75472 66.587C5.37952 67.8073 5.0107 69.0003 4.64916 70.1605C4.13554 71.8079 3.63467 73.3897 3.14928 74.8951C2.24954 73.0437 1.06111 71.5292 0.147705 70.5184V71.9481C1.0429 73.051 2.04737 74.5235 2.71945 76.2165C1.80604 79.0049 0.946365 81.4938 0.147705 83.5911V86.1018Z" fill="#FF6F00"/>
<path fill-rule="evenodd" clip-rule="evenodd" d="M51.3147 130.322C52.9485 129.037 55.2835 127.348 58.1876 125.432C70.5618 117.268 93.335 104.967 117.107 101.659C117.361 101.623 117.539 101.389 117.503 101.135C117.468 100.881 117.234 100.703 116.98 100.739C100.978 102.969 85.4914 109.209 73.2529 115.55C67.1331 118.721 61.8266 121.918 57.6758 124.657C54.1706 126.969 51.4932 128.949 49.834 130.322H51.3147Z" fill="#AD1457"/>
<path fill-rule="evenodd" clip-rule="evenodd" d="M62.1908 122.623C53.5704 121.145 50.0297 108.688 57.5081 96.2666C68.4317 101.065 70.2038 117.755 66.3153 120.109C64.7935 121.03 62.1908 122.623 62.1908 122.623Z" fill="#E19100"/>
<path fill-rule="evenodd" clip-rule="evenodd" d="M83.3514 111.23C75.9622 108.298 75.1471 96.5561 84.1273 86.9121C92.9435 93.2267 91.3908 108.402 87.4895 109.766C85.9641 110.301 83.3514 111.23 83.3514 111.23Z" fill="#F8BBD0"/>
<path fill-rule="evenodd" clip-rule="evenodd" d="M70.9744 117.576C69.4463 122.506 72.5526 127.607 78.5184 130.321H90.369C89.5212 120.446 78.0103 113.218 74.71 115.27C73.3367 116.122 70.9744 117.576 70.9744 117.576Z" fill="#F8BBD0"/>
<path fill-rule="evenodd" clip-rule="evenodd" d="M106.481 103.293C101.41 100.545 101.833 92.0141 109.133 85.8389C114.942 91.1472 112.517 101.947 109.59 102.594C108.444 102.848 106.481 103.293 106.481 103.293Z" fill="#F8BBD0"/>
<path fill-rule="evenodd" clip-rule="evenodd" d="M116.199 99.133C117.813 94.5678 124.528 93.1335 131.005 97.9082C127.79 103.695 119.78 104.981 116.516 102.755C115.701 102.198 115.358 101.514 116.199 99.133Z" fill="#F8BBD0"/>
<path fill-rule="evenodd" clip-rule="evenodd" d="M94.803 106.937C92.0965 112.029 97.1644 118.904 106.662 120.015C108.568 112.381 100.576 104.721 97.7791 105.8C96.6845 106.222 94.803 106.937 94.803 106.937Z" fill="#F8BBD0"/>
<path fill-rule="evenodd" clip-rule="evenodd" d="M56.2169 60.4367C61.864 52.9018 70.9325 34.722 59.8114 30.746C51.0225 27.6033 51.8075 39.4074 47.9635 40.6186C43.5804 42.0001 41.1617 36.649 36.663 39.2289C30.3074 42.8753 33.207 52.1386 27.497 54.2687C21.7871 56.3988 17.527 49.5714 12.7059 56.0035C6.73734 63.9674 19.7554 72.7672 7.99771 78.499C4.59816 80.1555 2.12933 79.9233 0.147705 78.8195V118.499C1.59659 118.386 2.96351 118.08 4.18381 117.544C11.594 114.297 10.5039 106.688 15.0044 106.043C19.5059 105.398 27.2575 111.231 32.4311 107.813C41.6234 101.738 29.0789 88.6047 35.3926 83.4348C41.7072 78.2649 48.2331 86.0257 54.8928 82.1189C61.5517 78.2121 50.5689 67.9725 56.2169 60.4367Z" fill="#FFA000"/>
<path fill-rule="evenodd" clip-rule="evenodd" d="M0.147705 95.7856C3.57093 93.395 7.02329 92.7357 10.2689 92.3377C12.0821 92.1165 13.826 91.9817 15.4497 91.6638C17.0726 91.346 18.5852 90.8415 19.8929 89.8598C20.8746 89.1276 21.4238 88.2862 21.7015 87.4074C21.9119 86.748 21.9811 86.0769 22.0157 85.3984C22.0667 84.3794 22.0448 83.3376 22.2434 82.2457C22.4428 81.1547 22.8526 80.0091 23.7888 78.7569C24.6321 77.634 25.3734 77.0293 26.0864 76.6396C26.621 76.3472 27.1492 76.1742 27.7129 76.0121C28.5552 75.7699 29.4841 75.5577 30.5059 74.983C31.5295 74.4084 32.6241 73.4795 33.8472 71.8476C34.8189 70.5517 35.3361 69.4115 35.6039 68.357C35.8069 67.5674 35.8698 66.8316 35.898 66.1268C35.9381 65.0667 35.9062 64.0768 36.1075 62.9959C36.3096 61.9149 36.7367 60.7274 37.7321 59.2566C40.4177 55.3061 43.5149 53.635 46.2341 52.5677C47.5938 52.0341 48.8569 51.6616 49.9315 51.2309C50.4688 51.015 50.9596 50.7856 51.3913 50.506C51.8229 50.2255 52.1981 49.8913 52.4795 49.4733C53.2008 48.4032 53.4303 47.3869 53.4294 46.5664C53.4275 45.3415 52.9403 44.562 52.913 44.5174C52.7764 44.2997 52.4896 44.236 52.2728 44.3726C52.0561 44.5092 51.9905 44.7961 52.128 45.0128L52.1617 44.9909L52.1271 45.0119L52.128 45.0128L52.1617 44.9909L52.1271 45.0119C52.1508 45.0483 52.5014 45.6576 52.5005 46.5664C52.4987 47.2194 52.3275 48.0317 51.7082 48.9551C51.5133 49.2447 51.2428 49.4951 50.8859 49.7264C50.2648 50.1326 49.3851 50.4641 48.3433 50.8247C46.7805 51.3684 44.8545 51.9849 42.8601 53.1478C40.8648 54.3099 38.8021 56.0237 36.9635 58.7357C36.0228 60.1218 35.531 61.3275 35.2778 62.4221C34.9008 64.0668 35.0483 65.4237 34.929 66.7633C34.8079 68.1056 34.4664 69.4625 33.1031 71.2903C32.0659 72.6736 31.1671 73.4786 30.3538 73.9931C29.7418 74.3793 29.1745 74.606 28.6053 74.7873C27.7557 75.0605 26.8851 75.2198 25.9516 75.6651C25.0191 76.1096 24.0583 76.8445 23.0457 78.1995C22.1341 79.4144 21.6578 80.5837 21.4119 81.6747C21.044 83.3121 21.1706 84.7619 21.0413 85.9794C20.9784 86.5896 20.8582 87.1378 20.6069 87.6469C20.3546 88.1559 19.9703 88.6386 19.3356 89.1167C18.1836 89.9818 16.8221 90.449 15.2713 90.7523C12.9481 91.2094 10.2234 91.2832 7.32199 91.8533C5.0025 92.3095 2.56645 93.0954 0.147705 94.6654V95.7856Z" fill="#FF6F00"/>
<path fill-rule="evenodd" clip-rule="evenodd" d="M69.5282 100.367C73.1709 107.659 71.7166 124.947 54.0896 130.01C53.7226 130.116 53.3429 130.22 52.9585 130.322H0.147705V113.952C9.75257 102.776 28.0935 88.6 37.2048 85.4855C50.4924 80.9422 63.4322 88.1638 69.5282 100.367Z" fill="#E91E63"/>
<path fill-rule="evenodd" clip-rule="evenodd" d="M0.147705 124.242C2.14481 123.491 4.48069 122.63 7.05698 121.694C15.8677 118.495 27.497 114.429 38.0517 110.927C43.3282 109.177 48.336 107.568 52.587 106.279C56.8371 104.992 60.3341 104.024 62.5671 103.56C62.8184 103.508 62.9796 103.262 62.9268 103.011C62.8749 102.76 62.629 102.598 62.3786 102.65C59.3269 103.286 54.1051 104.802 47.8224 106.782C38.4033 109.752 26.6192 113.762 16.354 117.383C10.0904 119.593 4.39691 121.655 0.147705 123.25V124.242Z" fill="#F8BBD0"/>
<path fill-rule="evenodd" clip-rule="evenodd" d="M31.7645 126.57C31.0269 127.695 29.2647 127.844 27.8286 126.902C26.3916 125.959 25.8251 124.284 26.5628 123.159C27.3004 122.034 29.0626 121.886 30.4996 122.828C31.9357 123.77 32.5031 125.445 31.7645 126.57Z" fill="#F8BBD0"/>
<path fill-rule="evenodd" clip-rule="evenodd" d="M32.0923 106.21C31.8537 107.352 30.2973 107.993 28.6144 107.641C26.9333 107.288 25.764 106.077 26.0035 104.935C26.243 103.792 27.7994 103.153 29.4805 103.505C31.1625 103.857 32.3327 105.067 32.0923 106.21Z" fill="#F8BBD0"/>
<path fill-rule="evenodd" clip-rule="evenodd" d="M18.3894 126.897C18.241 127.608 17.272 128.007 16.2257 127.788C15.1793 127.569 14.4526 126.816 14.601 126.104C14.7504 125.394 15.7184 124.995 16.7639 125.215C17.8111 125.434 18.5388 126.187 18.3894 126.897Z" fill="#F8BBD0"/>
<path fill-rule="evenodd" clip-rule="evenodd" d="M22.3208 102.937C22.6387 103.661 22.0303 104.629 20.963 105.097C19.8948 105.564 18.7719 105.354 18.4541 104.629C18.1372 103.904 18.7446 102.937 19.8128 102.469C20.8811 102.001 22.0039 102.211 22.3208 102.937Z" fill="#F8BBD0"/>
<path fill-rule="evenodd" clip-rule="evenodd" d="M40.9303 122.926C40.8311 123.414 40.1672 123.69 39.4487 123.543C38.7301 123.395 38.2302 122.88 38.3295 122.392C38.4296 121.905 39.0935 121.628 39.8111 121.776C40.5296 121.923 41.0305 122.438 40.9303 122.926Z" fill="#F8BBD0"/>
<path fill-rule="evenodd" clip-rule="evenodd" d="M28.8766 97.1064C29.2454 97.5682 28.9941 98.3832 28.3147 98.9278C27.6344 99.4715 26.7839 99.5379 26.4141 99.0762C26.0462 98.6136 26.2967 97.7986 26.9769 97.2558C27.6563 96.7112 28.5078 96.6456 28.8766 97.1064Z" fill="#F8BBD0"/>
</svg>
