<svg width="186" height="150" viewBox="0 0 186 150" fill="none" xmlns="http://www.w3.org/2000/svg">
<path fill-rule="evenodd" clip-rule="evenodd" d="M90.4565 27.8899C92.4863 24.8572 95.9518 25.2702 98.7298 27.186C102.933 30.0835 115.437 35.6934 119.169 36.0328C124.347 36.5051 143.818 32.1208 145.411 31.0714C147.004 30.022 147.27 29.3128 147.976 28.7737C148.291 28.533 148.746 28.0653 148.746 28.0653C148.927 28.6371 149.401 30.0114 149.401 30.0114C150.795 29.5619 157.464 28.5854 157.048 30.1154C156.633 31.6455 154.391 35.0988 150.458 35.8938C147.828 36.4253 145.223 35.6349 143.619 36.2029C134.498 39.4353 124.084 43.2455 118.173 42.6107V42.6138C110.701 41.9273 96.7927 36.4276 93.9235 34.5688C91.0551 32.7115 89.2251 29.7274 90.4565 27.8899Z" fill="#FFF3E0"/>
<path fill-rule="evenodd" clip-rule="evenodd" d="M122.095 25.9331L149.815 17.7217L157.1 48.7705L129.379 56.982L122.095 25.9331Z" fill="#00838F"/>
<path fill-rule="evenodd" clip-rule="evenodd" d="M130.065 52.9302C142.161 47.31 152.906 46.4465 156.806 47.5208L149.59 16.7611C145.689 15.6868 134.944 16.5503 122.848 22.1697L130.065 52.9302Z" fill="#FFA000"/>
<path fill-rule="evenodd" clip-rule="evenodd" d="M130.566 50.5569C142.183 45.0502 153.036 46.4151 156.806 47.5205L149.59 16.7608C145.82 15.6554 134.966 14.2905 123.351 19.7972L130.566 50.5569Z" fill="#FFECB3"/>
<path fill-rule="evenodd" clip-rule="evenodd" d="M130.065 52.9302L130.557 55.0316L157.1 48.7709L156.806 47.5208C152.906 46.4466 142.161 47.3101 130.065 52.9302Z" fill="#FFA000"/>
<path fill-rule="evenodd" clip-rule="evenodd" d="M178.28 12.6807L149.815 17.7218L157.1 48.7706L185.563 43.7295L178.28 12.6807Z" fill="#00838F"/>
<path fill-rule="evenodd" clip-rule="evenodd" d="M183.149 40.4081C169.823 40.7847 159.82 44.8148 156.806 47.5202L149.59 16.7605C152.604 14.0551 162.606 10.0243 175.932 9.64844L183.149 40.4081Z" fill="#FFA000"/>
<path fill-rule="evenodd" clip-rule="evenodd" d="M181.644 38.5095C168.799 38.7727 159.69 44.8455 156.806 47.5206L149.59 16.7609C152.473 14.0858 161.581 8.01226 174.428 7.74902L181.644 38.5095Z" fill="#FFECB3"/>
<path fill-rule="evenodd" clip-rule="evenodd" d="M183.149 40.4082L183.64 42.5096L157.1 48.7703L156.806 47.5203C159.821 44.8148 169.822 40.7848 183.149 40.4082Z" fill="#FFA000"/>
<path fill-rule="evenodd" clip-rule="evenodd" d="M157.217 49.2735L185.356 44.2902L185.563 43.7295L157.1 48.7706L157.217 49.2735Z" fill="#00838F"/>
<path fill-rule="evenodd" clip-rule="evenodd" d="M157.218 49.2734L129.814 57.3913L129.379 56.982L157.1 48.7705L157.218 49.2734Z" fill="#00838F"/>
<path fill-rule="evenodd" clip-rule="evenodd" d="M131.678 45.9948L131.832 46.6529C142.031 42.4311 150.928 43.4689 153.999 44.0334L153.833 43.3258C150.474 42.7469 141.694 41.878 131.678 45.9948Z" fill="#FF6F00"/>
<path fill-rule="evenodd" clip-rule="evenodd" d="M176.374 25.3456L176.22 24.6875C165.423 25.4803 157.95 30.1829 155.201 32.2021L155.368 32.9104C157.866 31.0319 165.371 26.1247 176.374 25.3456Z" fill="#FF6F00"/>
<path fill-rule="evenodd" clip-rule="evenodd" d="M177.815 31.4862L177.661 30.8281C166.864 31.6209 159.391 36.3227 156.642 38.3427L156.809 39.051C159.306 37.1718 166.807 32.2645 177.815 31.4862Z" fill="#FF6F00"/>
<path fill-rule="evenodd" clip-rule="evenodd" d="M175.894 23.2987L175.739 22.6406C164.945 23.4326 157.471 28.1352 154.721 30.1552L154.888 30.8627C157.386 28.9843 164.888 24.077 175.894 23.2987Z" fill="#FF6F00"/>
<path fill-rule="evenodd" clip-rule="evenodd" d="M177.334 29.4394L177.18 28.7812C166.384 29.574 158.911 34.2766 156.162 36.2966L156.328 37.0041C158.826 35.1257 166.327 30.2192 177.334 29.4394Z" fill="#FF6F00"/>
<path fill-rule="evenodd" clip-rule="evenodd" d="M176.855 27.3925L176.7 26.7344C165.903 27.5264 158.431 32.229 155.682 34.2489L155.848 34.9565C158.347 33.078 165.851 28.1708 176.855 27.3925Z" fill="#FF6F00"/>
<path fill-rule="evenodd" clip-rule="evenodd" d="M173.493 13.0634L173.338 12.4053C162.543 13.1988 155.069 17.9006 152.321 19.9198L152.486 20.6281C154.985 18.7489 162.486 13.8425 173.493 13.0634Z" fill="#FF6F00"/>
<path fill-rule="evenodd" clip-rule="evenodd" d="M173.973 15.1103L173.819 14.4521C163.022 15.2457 155.549 19.9467 152.801 21.9667L152.967 22.675C155.464 20.7966 162.965 15.8893 173.973 15.1103Z" fill="#FF6F00"/>
<path fill-rule="evenodd" clip-rule="evenodd" d="M175.414 21.2509L175.259 20.5928C164.462 21.3848 156.99 26.0874 154.242 28.1073L154.408 28.8149C156.906 26.9372 164.408 22.0307 175.414 21.2509Z" fill="#FF6F00"/>
<path fill-rule="evenodd" clip-rule="evenodd" d="M174.453 17.1571L174.299 16.499C163.503 17.2926 156.029 21.9944 153.281 24.0136L153.447 24.7211C155.944 22.8427 163.446 17.9362 174.453 17.1571Z" fill="#FF6F00"/>
<path fill-rule="evenodd" clip-rule="evenodd" d="M174.934 19.2048L174.779 18.5459C163.983 19.3394 156.51 24.0405 153.761 26.0612L153.928 26.7688C156.425 24.8903 163.927 19.9831 174.934 19.2048Z" fill="#FF6F00"/>
<path fill-rule="evenodd" clip-rule="evenodd" d="M169.94 34.3018C163.557 36.0752 159.108 38.9321 157.123 40.3906L157.289 41.0981C159.105 39.7324 163.565 36.7683 170.092 34.9515L169.94 34.3018Z" fill="#FF6F00"/>
<path fill-rule="evenodd" clip-rule="evenodd" d="M127.356 27.5712L127.51 28.2301C137.709 24.0083 146.606 25.0461 149.677 25.6106L149.511 24.903C146.153 24.3241 137.373 23.4552 127.356 27.5712Z" fill="#FF6F00"/>
<path fill-rule="evenodd" clip-rule="evenodd" d="M127.837 29.6188L127.991 30.2769C138.189 26.0559 147.087 27.0929 150.157 27.6582L149.991 26.9499C146.632 26.3709 137.852 25.502 127.837 29.6188Z" fill="#FF6F00"/>
<path fill-rule="evenodd" clip-rule="evenodd" d="M128.316 31.6664L128.471 32.3245C138.669 28.102 147.567 29.1405 150.637 29.7051L150.471 28.9975C147.113 28.4178 138.334 27.5481 128.316 31.6664Z" fill="#FF6F00"/>
<path fill-rule="evenodd" clip-rule="evenodd" d="M126.876 25.525L127.031 26.1832C137.229 21.9614 146.126 22.9991 149.197 23.5637L149.031 22.8561C145.672 22.2771 136.892 21.4083 126.876 25.525Z" fill="#FF6F00"/>
<path fill-rule="evenodd" clip-rule="evenodd" d="M130.718 41.9012L130.872 42.5586C141.07 38.3376 149.968 39.3753 153.038 39.9399L152.873 39.2323C149.514 38.6533 140.734 37.7837 130.718 41.9012Z" fill="#FF6F00"/>
<path fill-rule="evenodd" clip-rule="evenodd" d="M131.198 43.9477L131.352 44.6058C141.551 40.3841 150.448 41.4218 153.519 41.9871L153.352 41.2796C149.994 40.6998 141.215 39.831 131.198 43.9477Z" fill="#FF6F00"/>
<path fill-rule="evenodd" clip-rule="evenodd" d="M130.238 39.854L130.392 40.5121C140.59 36.2911 149.487 37.3281 152.558 37.8934L152.393 37.1858C149.034 36.6061 140.254 35.7372 130.238 39.854Z" fill="#FF6F00"/>
<path fill-rule="evenodd" clip-rule="evenodd" d="M129.277 35.7594L129.432 36.4175C139.628 32.1958 148.527 33.2335 151.597 33.798L151.432 33.0905C148.073 32.5115 139.294 31.6427 129.277 35.7594Z" fill="#FF6F00"/>
<path fill-rule="evenodd" clip-rule="evenodd" d="M128.797 33.7126L128.952 34.3715C139.148 30.1497 148.047 31.1867 151.117 31.752L150.951 31.0444C147.593 30.4654 138.812 29.5974 128.797 33.7126Z" fill="#FF6F00"/>
<path fill-rule="evenodd" clip-rule="evenodd" d="M129.757 37.8067L129.912 38.4656C140.108 34.2438 149.006 35.2816 152.078 35.8461L151.912 35.1378C148.554 34.5596 139.774 33.6907 129.757 37.8067Z" fill="#FF6F00"/>
<path fill-rule="evenodd" clip-rule="evenodd" d="M129.409 22.3735L129.562 23.0248C138.467 20.1192 145.952 21.0086 148.716 21.5168L148.55 20.8093C145.534 20.2889 138.142 19.538 129.409 22.3735Z" fill="#FF6F00"/>
<path fill-rule="evenodd" clip-rule="evenodd" d="M110.294 5.68066C115.338 14.4002 114.202 34.2544 100.997 32.5811C90.635 31.2684 99.5173 23.5129 101.478 21.2036C103.437 18.8951 110.294 5.6814 110.294 5.68066Z" fill="#212121"/>
<path fill-rule="evenodd" clip-rule="evenodd" d="M87.5835 78.8644L87.5557 78.4042L87.5271 77.944L87.4977 77.483L87.4676 77.0205L87.4368 76.558L87.4052 76.0948L87.3728 75.6315L87.339 75.166L87.3043 74.7012L87.269 74.2356L87.2329 73.7686L87.196 73.3015L87.1569 72.8329L87.117 72.3636L87.0763 71.8935L87.0342 71.4226L86.9905 70.9502L86.9446 70.4763L86.8972 70.0017C86.8792 69.832 86.8626 69.67 86.8468 69.5239V69.5232L85.712 68.9382L84.9798 68.5609L83.3687 67.7302L83.1151 67.6002L81.2518 66.6394L79.3886 65.6787L79.1485 65.5554L78.995 65.4756L78.7136 65.331L78.2771 65.1059L77.8414 64.8807L77.4057 64.6563L76.97 64.4319L76.6155 64.2493L76.5335 64.2067L76.5057 64.1931L76.0978 63.9823L75.6621 63.7579L75.2256 63.5328L74.7899 63.3076L74.3535 63.0832L73.9178 62.8588L73.482 62.6336L73.0456 62.4092L72.6099 62.1841L72.1742 61.9597L71.7384 61.7353L71.302 61.5101L70.8663 61.2857L70.4306 61.0613L69.9949 60.8369L69.5584 60.6117L69.1227 60.3866L68.687 60.1622L68.4778 60.0542L68.2016 59.9119L67.9623 59.7887L67.8148 59.7126L67.7523 59.6807C67.6854 59.743 67.6237 59.8054 67.5574 59.8678L67.3294 60.0869C67.2542 60.1599 67.1759 60.2329 67.1014 60.3059C67.0262 60.3797 66.9494 60.4535 66.8749 60.5281C66.7989 60.6034 66.7259 60.6794 66.6507 60.7548C66.5762 60.8308 66.5009 60.9061 66.4272 60.9822C66.3534 61.0575 66.2759 61.1336 66.2037 61.2089C66.1284 61.288 66.0577 61.3663 65.9832 61.4455C65.9094 61.5238 65.8364 61.6022 65.7634 61.6813C65.6904 61.7596 65.6152 61.838 65.5437 61.9163C65.47 61.9977 65.3992 62.0783 65.327 62.1597C65.254 62.2411 65.1832 62.3233 65.1118 62.4047C65.0403 62.4861 64.9658 62.5675 64.8958 62.6489C64.8235 62.7333 64.7543 62.8177 64.6836 62.9014C64.6121 62.9866 64.5421 63.071 64.4729 63.1555C64.4021 63.2407 64.3299 63.3251 64.2614 63.4103C64.1907 63.4978 64.1229 63.5853 64.0537 63.6727C63.9837 63.761 63.916 63.8492 63.8475 63.9375C63.779 64.0249 63.7076 64.1139 63.6413 64.2014C63.5713 64.2935 63.5074 64.3847 63.4397 64.476C63.3719 64.5681 63.3042 64.6601 63.238 64.7514C63.171 64.8442 63.1025 64.937 63.0378 65.029C62.9701 65.1249 62.9069 65.22 62.8414 65.3158C62.7759 65.4109 62.709 65.506 62.645 65.6011C62.5795 65.6992 62.5163 65.7973 62.4523 65.8955C62.3876 65.9944 62.3244 66.094 62.2612 66.1929C62.198 66.2925 62.1333 66.393 62.0716 66.4926C62.0076 66.5961 61.9482 66.6988 61.8864 66.8022C61.8247 66.9057 61.7608 67.0091 61.7013 67.1126C61.6396 67.2191 61.5809 67.3256 61.5207 67.4321C61.4605 67.5393 61.4003 67.6473 61.3416 67.7546C61.2822 67.8641 61.2227 67.9737 61.1655 68.0832C61.1068 68.1958 61.0496 68.3076 60.9925 68.4194C60.9353 68.5328 60.8766 68.6461 60.8216 68.7595C60.7644 68.8766 60.7103 68.993 60.6553 69.1094C60.6004 69.2273 60.5432 69.3444 60.4898 69.4616C60.4348 69.5833 60.3837 69.705 60.3302 69.8267C60.2776 69.9492 60.2234 70.0716 60.1722 70.1933C60.1195 70.3204 60.0699 70.4467 60.0194 70.5729C59.969 70.7007 59.9171 70.8285 59.8689 70.9563C59.8185 71.0887 59.7711 71.2203 59.7237 71.3519C59.6755 71.4858 59.6274 71.6196 59.5815 71.7535C59.5348 71.8904 59.4889 72.0281 59.4445 72.165C59.3986 72.3058 59.355 72.4465 59.3121 72.5872C59.2677 72.7302 59.2233 72.8725 59.1819 73.0155C59.1397 73.1631 59.0999 73.3114 59.06 73.4597C59.0193 73.6096 58.9787 73.7602 58.9403 73.9101C58.9019 74.0645 58.8636 74.2181 58.8274 74.3726C58.7898 74.5315 58.7552 74.6898 58.7206 74.8487C58.6845 75.0108 58.6499 75.172 58.6175 75.3341C58.5836 75.4999 58.5513 75.6657 58.5212 75.8323C58.4888 76.0035 58.4595 76.1746 58.4309 76.3458C58.4015 76.5207 58.3729 76.6949 58.3466 76.8699C58.3187 77.0487 58.2917 77.2274 58.2676 77.4054C58.242 77.5903 58.2187 77.7743 58.1961 77.9584C58.1728 78.1471 58.1517 78.3357 58.1314 78.5244C58.1103 78.7168 58.09 78.91 58.0719 79.1025C58.0531 79.2995 58.035 79.4965 58.0185 79.6936C58.0019 79.8951 57.9854 80.096 57.9711 80.2975C57.9568 80.5029 57.9425 80.7091 57.9304 80.9145C57.9176 81.1244 57.9056 81.3344 57.8951 81.5443C57.8838 81.7573 57.874 81.9703 57.8642 82.1825C57.8552 82.3993 57.8462 82.6161 57.8379 82.8321C57.8304 83.0505 57.8221 83.2695 57.8153 83.4879L57.795 84.1489L57.7769 84.8153L57.7596 85.4816L57.7416 86.148L57.7227 86.8128C57.716 87.0327 57.7092 87.2525 57.7017 87.4716C57.6942 87.6891 57.6859 87.9067 57.6768 88.1242C57.6686 88.3388 57.6588 88.554 57.6483 88.7685C57.6385 88.98 57.6272 89.1915 57.6151 89.4022C57.6031 89.6099 57.5903 89.8175 57.5768 90.0244C57.5632 90.2275 57.5474 90.4306 57.5316 90.633C57.5158 90.8315 57.4985 91.0301 57.4804 91.2278C57.4624 91.4218 57.4428 91.6158 57.4225 91.8098C57.4022 91.9984 57.3811 92.1878 57.3585 92.3772C57.336 92.5621 57.3126 92.7462 57.2878 92.931C57.263 93.1105 57.2374 93.2908 57.2103 93.4703C57.1832 93.6445 57.1538 93.818 57.1245 93.9922C57.0959 94.1626 57.065 94.3322 57.0327 94.5018C57.0018 94.6677 56.9702 94.8335 56.9356 94.9993C56.9025 95.1606 56.8679 95.3211 56.8318 95.4816C56.7964 95.6375 56.7588 95.7942 56.7204 95.9502C56.6835 96.1023 56.6459 96.2552 56.6053 96.4081C56.5661 96.5564 56.5255 96.7048 56.4833 96.8531C56.4427 96.9969 56.3991 97.1407 56.3554 97.2852C56.3125 97.4259 56.2704 97.5682 56.2245 97.7096C56.1801 97.8458 56.1327 97.982 56.0853 98.1181C56.0394 98.252 55.9919 98.3859 55.943 98.5198C55.8956 98.6506 55.8467 98.7815 55.7963 98.9115C55.7481 99.0386 55.6962 99.1648 55.6443 99.2919C55.5939 99.4166 55.5434 99.5421 55.49 99.6669C55.4381 99.7871 55.3832 99.908 55.329 100.028C55.2748 100.148 55.2229 100.268 55.1672 100.388C55.113 100.502 55.0543 100.617 54.9979 100.731C54.9414 100.846 54.8872 100.961 54.8286 101.076C54.7721 101.185 54.7112 101.295 54.6525 101.404C54.5938 101.515 54.5373 101.624 54.4764 101.734C54.4184 101.839 54.3545 101.944 54.2935 102.05C54.2333 102.155 54.1739 102.259 54.1114 102.365C54.0504 102.466 53.9865 102.567 53.924 102.669C53.8616 102.77 53.7991 102.87 53.7344 102.971C53.6719 103.069 53.608 103.168 53.5425 103.266C53.4793 103.362 53.4131 103.458 53.3476 103.554C53.2821 103.65 53.2189 103.746 53.1519 103.841C53.0865 103.933 53.0172 104.026 52.951 104.118C52.884 104.21 52.8186 104.302 52.7493 104.394C52.6831 104.484 52.6139 104.573 52.5454 104.662C52.4777 104.751 52.4084 104.839 52.3385 104.927C52.2775 105.005 52.2203 105.082 52.1579 105.16L52.1135 105.151L51.753 105.087L51.3918 105.022L51.0321 104.961L50.6731 104.899L50.3149 104.84L49.9575 104.782L49.6008 104.726L49.2441 104.671L48.8889 104.617L48.5337 104.566L48.18 104.516L47.8263 104.468L47.4734 104.42L47.122 104.375C47.0046 104.36 46.8872 104.344 46.7706 104.331L46.4206 104.288L46.0707 104.247L45.7215 104.208L45.3731 104.17L45.0262 104.134L44.6786 104.099L44.3324 104.065L43.9877 104.033L43.6423 104.003L43.2984 103.974L42.9545 103.946L42.6114 103.919L42.2697 103.894L41.9273 103.87L41.5864 103.848L41.2463 103.826L40.9062 103.806L40.566 103.787L40.2274 103.769L39.8888 103.751L39.5509 103.735L39.213 103.72L38.8759 103.705L38.5387 103.692L38.2024 103.678L37.8652 103.666L37.5296 103.654L37.1932 103.642L36.8576 103.631L36.522 103.62L36.1864 103.61L35.8515 103.599L35.5151 103.587L35.1795 103.577L34.8439 103.565L34.5082 103.554L34.1719 103.543L33.8355 103.53L33.4991 103.517L33.162 103.504L32.8248 103.489L32.487 103.473L32.1491 103.457L31.8097 103.438L31.4703 103.419L31.1302 103.399L30.7893 103.377L30.4476 103.353L30.1045 103.327L29.7621 103.301L29.4182 103.272L29.0728 103.241L28.7266 103.207L28.3797 103.172L28.0313 103.135L27.6821 103.095L27.3322 103.053C27.2155 103.038 27.0982 103.024 26.9808 103.009C26.8641 102.993 26.746 102.977 26.6278 102.961L26.2741 102.912C26.1568 102.895 26.0386 102.879 25.9197 102.86C25.8016 102.843 25.6827 102.824 25.563 102.805L25.2056 102.748C25.0867 102.728 24.9678 102.709 24.8474 102.688C24.7285 102.668 24.6081 102.646 24.4877 102.625L24.1257 102.559C24.0053 102.537 23.8849 102.515 23.7637 102.491C23.6433 102.469 23.5214 102.444 23.3995 102.42L23.0338 102.345C22.9126 102.32 22.7907 102.296 22.6681 102.269C22.5462 102.243 22.4227 102.216 22.3001 102.189L21.9306 102.106C21.8079 102.079 21.6845 102.051 21.5604 102.022C21.4369 101.993 21.312 101.963 21.1879 101.933L20.8146 101.842C20.6904 101.811 20.5663 101.781 20.4406 101.749C20.3164 101.718 20.19 101.684 20.0643 101.652C19.9394 101.619 19.8138 101.586 19.6873 101.553L19.3088 101.45C19.1831 101.416 19.056 101.381 18.9288 101.345C18.8024 101.309 18.6759 101.274 18.548 101.238L18.1657 101.127L17.7819 101.013L17.3974 100.898L17.2725 100.86L17.0114 100.78L16.6231 100.657C16.4921 100.615 16.3627 100.574 16.234 100.531L15.8427 100.402L15.4506 100.27L15.0571 100.135L15.0051 100.118C14.9653 100.234 14.9254 100.352 14.8847 100.474C14.8396 100.609 14.7944 100.747 14.7485 100.889C14.7041 101.026 14.6597 101.166 14.6153 101.308C14.5717 101.448 14.5273 101.589 14.4836 101.733C14.4408 101.874 14.3971 102.017 14.3542 102.16L14.2263 102.592L14.0999 103.027L13.9742 103.465L13.8508 103.905L13.7281 104.349L13.607 104.795L13.4873 105.245L13.3692 105.698C13.2503 106.16 13.1472 106.575 13.0667 106.917C13.3631 106.947 13.6739 106.988 13.999 107.041C14.1164 107.06 14.2383 107.081 14.3595 107.103C14.4784 107.125 14.5995 107.147 14.7214 107.171C14.8418 107.195 14.963 107.218 15.0864 107.244C15.2076 107.269 15.3302 107.296 15.4536 107.324C15.5756 107.351 15.6997 107.379 15.8246 107.408C15.9473 107.437 16.0715 107.466 16.1971 107.497C16.3206 107.528 16.4447 107.559 16.5711 107.591C16.6953 107.623 16.821 107.656 16.9482 107.689C17.0731 107.723 17.198 107.755 17.3252 107.79C17.4508 107.824 17.578 107.859 17.7052 107.896C17.8316 107.931 17.9588 107.967 18.0875 108.004C18.2139 108.041 18.3403 108.077 18.469 108.115C18.5962 108.152 18.7256 108.191 18.8535 108.23L19.2388 108.346L19.6256 108.466L20.0132 108.587L20.4015 108.711L20.7913 108.837L21.1811 108.964L21.5724 109.093L21.9645 109.224L22.3565 109.356L22.7501 109.49L23.1437 109.624L23.538 109.76L23.9331 109.897L24.3281 110.036L24.724 110.174L25.1198 110.314L25.5164 110.455L25.9129 110.596L26.3103 110.738L26.7076 110.88L27.1049 111.022L27.5023 111.166L27.9003 111.309L28.2977 111.453L28.6965 111.597L29.4919 111.884L29.89 112.029L30.2881 112.173L30.6862 112.316L31.0843 112.46L31.4823 112.604L31.8804 112.748L32.2778 112.89L32.6751 113.033L33.0724 113.175L33.469 113.317L33.8656 113.458L34.2629 113.599L34.6587 113.74L35.0546 113.879L35.4504 114.018L35.8462 114.156L36.2405 114.293L36.6349 114.43L37.0292 114.565L37.4227 114.7L37.8163 114.833L38.2091 114.966L38.6004 115.097L38.9925 115.227L39.3838 115.356L39.7744 115.485L40.1642 115.611L40.5532 115.736L40.9415 115.86L41.3298 115.982L41.7174 116.103L42.1034 116.222L42.4887 116.34L42.874 116.456L43.2578 116.569L43.6416 116.682L44.0231 116.791C44.1503 116.828 44.2782 116.864 44.4046 116.9C44.5318 116.937 44.6582 116.971 44.7847 117.006C44.9118 117.041 45.0383 117.077 45.1647 117.111C45.2911 117.145 45.4168 117.179 45.5424 117.212C45.6681 117.246 45.7945 117.28 45.9202 117.313C46.0459 117.345 46.1708 117.377 46.2957 117.409C46.4206 117.441 46.5463 117.474 46.6712 117.505C46.7969 117.536 46.9203 117.566 47.0445 117.596C47.1694 117.627 47.2943 117.658 47.4177 117.687C47.5426 117.716 47.6653 117.745 47.7887 117.774C47.9129 117.802 48.0363 117.831 48.1597 117.859C48.2831 117.886 48.405 117.913 48.5277 117.939C48.6504 117.966 48.7738 117.993 48.8957 118.018C49.0183 118.044 49.1395 118.069 49.2607 118.093C49.3826 118.118 49.5045 118.142 49.6256 118.166C49.7468 118.19 49.8679 118.212 49.9883 118.234C50.1087 118.257 50.2299 118.279 50.3495 118.3C50.47 118.321 50.5896 118.342 50.7093 118.362C50.8289 118.381 50.9478 118.4 51.0667 118.419C51.1856 118.438 51.3045 118.457 51.4226 118.474C51.5415 118.492 51.6589 118.508 51.7771 118.524C51.8945 118.54 52.0126 118.556 52.1293 118.571C52.2467 118.586 52.3625 118.599 52.4792 118.612C52.5951 118.625 52.7125 118.639 52.8276 118.651C52.9442 118.663 53.0579 118.672 53.173 118.682C53.2881 118.692 53.404 118.703 53.5177 118.711C53.632 118.721 53.7449 118.726 53.8578 118.733C53.9714 118.74 54.0851 118.746 54.1964 118.752C54.3101 118.756 54.4214 118.76 54.5328 118.763C54.6449 118.766 54.7563 118.768 54.8669 118.769C54.9776 118.771 55.0882 118.772 55.198 118.771C55.3079 118.77 55.4163 118.766 55.5246 118.763C55.6338 118.761 55.7436 118.759 55.8505 118.753C55.9588 118.748 56.0649 118.74 56.1711 118.732C56.2779 118.724 56.3848 118.716 56.4894 118.706C56.5955 118.696 56.7001 118.685 56.8039 118.673C56.9085 118.66 57.0116 118.644 57.114 118.629C57.2058 118.616 57.2983 118.603 57.3871 118.588C57.3984 118.586 57.4105 118.582 57.4217 118.581C57.5211 118.562 57.6212 118.536 57.7205 118.513C57.8198 118.49 57.9184 118.469 58.017 118.441C58.1133 118.414 58.2089 118.381 58.3052 118.35C58.4 118.319 58.4948 118.289 58.5904 118.253C58.683 118.219 58.7755 118.18 58.8681 118.142C58.9606 118.104 59.0525 118.067 59.1443 118.025C59.2338 117.985 59.3241 117.939 59.4137 117.894C59.5032 117.85 59.592 117.809 59.6816 117.761C59.7689 117.716 59.8554 117.662 59.9427 117.613C60.03 117.564 60.1165 117.517 60.2038 117.465C60.2881 117.414 60.3731 117.357 60.4582 117.303C60.5424 117.249 60.6267 117.195 60.7118 117.138C60.7945 117.083 60.8781 117.024 60.9608 116.966C61.0436 116.909 61.1256 116.849 61.2077 116.788C61.2897 116.728 61.3717 116.669 61.4537 116.607C61.5335 116.545 61.614 116.479 61.6946 116.415C61.7743 116.352 61.8548 116.29 61.9346 116.224C62.0136 116.159 62.0926 116.09 62.1717 116.023C62.2499 115.956 62.3282 115.889 62.4064 115.82C62.4847 115.752 62.5622 115.684 62.6405 115.613C62.7165 115.544 62.794 115.47 62.87 115.399C62.9467 115.327 63.0235 115.258 63.1003 115.185C63.1755 115.113 63.2515 115.037 63.3268 114.963C63.402 114.889 63.4765 114.814 63.5518 114.738C63.6263 114.663 63.7015 114.59 63.776 114.512C63.8498 114.436 63.9235 114.357 63.9973 114.279C64.071 114.201 64.1448 114.124 64.2178 114.045C64.2908 113.966 64.3637 113.887 64.4367 113.807C64.509 113.727 64.5812 113.645 64.6535 113.565C64.7257 113.483 64.798 113.405 64.8702 113.322C64.9417 113.241 65.0124 113.156 65.0839 113.072C65.1554 112.99 65.2261 112.907 65.2969 112.822C65.3676 112.739 65.4391 112.657 65.5098 112.571C65.5791 112.487 65.6498 112.398 65.719 112.313L65.9282 112.055C65.9982 111.968 66.0675 111.883 66.1367 111.795C66.2059 111.708 66.2744 111.618 66.3429 111.53C66.4121 111.442 66.4806 111.354 66.5491 111.264C66.6175 111.175 66.6853 111.086 66.7538 110.997C66.8215 110.907 66.8892 110.815 66.9569 110.724C67.0247 110.634 67.0924 110.544 67.1594 110.452L67.361 110.177C67.428 110.084 67.4942 109.992 67.5612 109.898C67.6274 109.805 67.6944 109.714 67.7606 109.62L67.9593 109.338C68.0248 109.244 68.0902 109.149 68.1565 109.054C68.2219 108.959 68.2881 108.865 68.3536 108.769L68.5493 108.482L68.7434 108.192C68.8081 108.095 68.8736 107.999 68.9383 107.901C69.0023 107.805 69.0662 107.706 69.131 107.608L69.3229 107.313C69.3868 107.214 69.4508 107.117 69.5148 107.017L69.7051 106.719L69.8948 106.42C69.958 106.319 70.0212 106.219 70.0852 106.119L70.2725 105.816L70.4599 105.511C70.5231 105.409 70.5856 105.308 70.648 105.205L70.8339 104.898L70.9302 104.738C70.9408 104.84 70.9521 104.942 70.9618 105.044C70.9777 105.201 70.9912 105.36 71.0062 105.517C71.0205 105.675 71.0371 105.831 71.0506 105.99C71.0634 106.143 71.0732 106.3 71.0845 106.455C71.0965 106.61 71.1086 106.764 71.1184 106.919C71.1289 107.073 71.1394 107.227 71.1485 107.382C71.1575 107.533 71.1643 107.687 71.1726 107.839C71.1808 107.992 71.1899 108.143 71.1966 108.296C71.2027 108.446 71.2072 108.597 71.2124 108.748C71.2177 108.897 71.2222 109.047 71.2267 109.198C71.2305 109.347 71.2365 109.496 71.2395 109.647C71.2425 109.793 71.2418 109.941 71.2433 110.089C71.2448 110.236 71.2463 110.383 71.2471 110.531C71.2478 110.678 71.2493 110.824 71.2486 110.971C71.2478 111.116 71.244 111.261 71.2425 111.407C71.2403 111.551 71.2395 111.696 71.2365 111.841C71.2335 111.985 71.2305 112.129 71.2267 112.274C71.223 112.415 71.2162 112.558 71.2109 112.7C71.2057 112.843 71.2011 112.985 71.1951 113.129C71.1891 113.27 71.1831 113.411 71.1756 113.552C71.168 113.692 71.1583 113.833 71.15 113.973C71.1417 114.113 71.1342 114.253 71.1251 114.394C71.1154 114.533 71.1071 114.671 71.0965 114.812C71.0868 114.949 71.0732 115.088 71.0619 115.225C71.0506 115.363 71.0394 115.501 71.0273 115.638C71.0145 115.776 71.0047 115.912 70.9912 116.051C70.9777 116.185 70.9611 116.322 70.9468 116.458C70.9333 116.592 70.9182 116.728 70.9032 116.864C70.8881 116.999 70.8761 117.134 70.8595 117.27C70.8437 117.403 70.8241 117.537 70.8076 117.67C70.791 117.803 70.7722 117.937 70.7549 118.07C70.7368 118.203 70.7203 118.336 70.7015 118.47C70.6932 118.533 70.6857 118.594 70.6766 118.657L70.4494 118.72L70.0197 118.836L69.5923 118.954L69.1656 119.074L68.7404 119.193L68.316 119.314L67.8931 119.436L67.4717 119.559L67.0518 119.682L66.6326 119.807L66.2149 119.932L65.7973 120.058L65.3819 120.186L64.9673 120.313L64.5534 120.442L64.141 120.571L63.7286 120.701L63.3185 120.832L62.9084 120.964L62.4998 121.096L62.0919 121.229L61.684 121.362L61.2777 121.496L60.872 121.631L60.4672 121.766L60.0623 121.901L59.659 122.037L59.2556 122.174L58.853 122.311L58.4504 122.448L58.0493 122.586L57.6483 122.724L57.2472 122.862L56.8468 123L56.4465 123.139L56.0461 123.279L55.6465 123.417L55.247 123.556L54.8474 123.695L54.4478 123.835L54.0482 123.974L53.6486 124.113L53.2483 124.252L52.8487 124.391L52.4483 124.53L52.048 124.668L51.6469 124.807L51.2458 124.945L50.8447 125.083L50.4429 125.22L50.0403 125.357L49.6362 125.494L49.2328 125.629L48.8279 125.765L48.4223 125.899L48.016 126.034L47.6089 126.167L47.2002 126.3L46.7909 126.432L46.3808 126.562L45.9699 126.693L45.556 126.822L45.1421 126.95L44.7267 127.078L44.3098 127.204L43.8914 127.329L43.4715 127.453L43.0501 127.576C42.9094 127.617 42.7679 127.657 42.6264 127.697L42.2013 127.817L41.7753 127.936L41.3464 128.053L40.9152 128.169L40.4832 128.284L40.0483 128.396C39.9031 128.435 39.7571 128.471 39.6118 128.508L39.1724 128.617C39.0256 128.654 38.8789 128.69 38.7314 128.726L38.2881 128.832L37.8419 128.936C37.6929 128.97 37.5431 129.005 37.3934 129.039L36.9434 129.14C36.7921 129.173 36.6409 129.205 36.4889 129.238C36.3376 129.271 36.1856 129.302 36.0328 129.334C35.8808 129.366 35.7281 129.398 35.5746 129.43L35.1133 129.522C34.959 129.553 34.804 129.583 34.649 129.613C34.4939 129.643 34.3382 129.673 34.1816 129.702C34.0259 129.731 33.8693 129.76 33.7121 129.789C33.5548 129.817 33.3968 129.845 33.2387 129.872L32.7631 129.954C32.6036 129.981 32.4441 130.008 32.2838 130.033C32.1242 130.06 31.964 130.086 31.8022 130.111C31.6411 130.136 31.4786 130.161 31.3168 130.186L31.0978 130.219L30.8284 130.259C30.6613 130.282 30.4973 130.305 30.334 130.326C30.1654 130.348 29.9984 130.37 29.8343 130.39C29.6627 130.411 29.4949 130.431 29.3286 130.45C29.1555 130.469 28.9855 130.488 28.8177 130.505C28.6431 130.523 28.4708 130.541 28.3022 130.558L28.1901 130.568C28.1931 130.685 28.1968 130.804 28.2029 130.922C28.2096 131.075 28.2187 131.228 28.2292 131.381C28.2405 131.537 28.2533 131.693 28.2683 131.85C28.2834 132.009 28.2999 132.168 28.3187 132.328C28.3376 132.49 28.3586 132.652 28.3812 132.814C28.4038 132.979 28.4286 133.144 28.455 133.308C28.482 133.477 28.5106 133.645 28.5415 133.813C28.5723 133.984 28.6047 134.156 28.6393 134.326C28.6747 134.502 28.7123 134.676 28.7507 134.849C28.7906 135.029 28.8327 135.207 28.8756 135.382C28.9208 135.567 28.9674 135.749 29.0156 135.927C29.0668 136.116 29.1187 136.302 29.1721 136.483C29.2293 136.679 29.288 136.87 29.3474 137.055C29.4137 137.258 29.4799 137.455 29.5476 137.644L29.5604 137.681L29.5845 137.672C29.7132 137.625 29.8471 137.579 29.9841 137.533C30.1165 137.489 30.255 137.446 30.3957 137.403C30.5327 137.361 30.6734 137.32 30.8171 137.28C30.9571 137.24 31.1001 137.201 31.2468 137.163C31.3905 137.126 31.535 137.089 31.684 137.052C31.83 137.017 31.9783 136.982 32.1295 136.947C32.277 136.914 32.429 136.881 32.5818 136.848C32.7323 136.816 32.885 136.784 33.0401 136.753C33.1928 136.722 33.3456 136.691 33.5021 136.661C33.6556 136.632 33.8137 136.602 33.9717 136.574C34.1267 136.545 34.2855 136.518 34.4443 136.489C34.6023 136.462 34.7596 136.435 34.9206 136.408C35.0794 136.382 35.2397 136.356 35.4022 136.33C35.5618 136.305 35.7236 136.279 35.8868 136.255C36.0479 136.23 36.2089 136.206 36.3737 136.181L36.8651 136.111L37.3588 136.042C37.5228 136.02 37.6869 135.997 37.8539 135.975C38.0187 135.953 38.1858 135.932 38.3529 135.911L38.8533 135.847L39.356 135.786L39.8609 135.725L40.3674 135.666L40.8753 135.609L41.3848 135.552L41.8957 135.496L42.4074 135.441L42.9207 135.387L43.4346 135.334L43.9494 135.281L44.4656 135.23L44.9826 135.179L45.5003 135.128L46.018 135.078L46.5365 135.027L47.055 134.978L47.5742 134.929L48.0942 134.88L48.6135 134.83L49.1335 134.782L49.6535 134.733L50.1735 134.684L50.6935 134.636L51.2127 134.586L51.7319 134.538L52.2519 134.488L52.7712 134.439L53.2896 134.389L53.8081 134.339L54.3259 134.288L54.8428 134.238L55.3598 134.186L55.8761 134.134L56.3915 134.083L56.9055 134.029L57.4195 133.976L57.9319 133.922L58.4452 133.867L58.9554 133.812L59.4656 133.756L59.9735 133.698L60.4822 133.641L60.9879 133.581L61.4936 133.521L61.9963 133.46L62.499 133.398L62.9994 133.334L63.4991 133.27L63.9958 133.204L64.4917 133.138L64.9853 133.069L65.4775 132.999L65.9681 132.928L66.4558 132.855L66.9419 132.781L67.425 132.704C67.586 132.679 67.7471 132.653 67.9066 132.627C68.0669 132.601 68.2264 132.573 68.3852 132.547C68.5448 132.52 68.7043 132.494 68.8623 132.466C69.0211 132.439 69.1776 132.41 69.3349 132.382C69.4929 132.354 69.651 132.325 69.8067 132.297C69.964 132.268 70.119 132.238 70.274 132.208C70.4298 132.179 70.5856 132.149 70.7399 132.119C70.8949 132.088 71.0476 132.057 71.2012 132.026C71.3554 131.995 71.5082 131.963 71.6602 131.931C71.813 131.899 71.965 131.867 72.1155 131.834C72.2675 131.801 72.4172 131.768 72.567 131.734C72.7175 131.7 72.868 131.667 73.0162 131.632C73.166 131.597 73.312 131.561 73.4595 131.525C73.607 131.489 73.7552 131.454 73.9004 131.417C74.0472 131.381 74.1909 131.343 74.3354 131.305C74.4806 131.267 74.6244 131.229 74.7673 131.19C74.9111 131.151 75.0533 131.111 75.194 131.071C75.337 131.031 75.4762 130.99 75.6154 130.949C75.7562 130.907 75.8969 130.866 76.0346 130.823C76.1731 130.78 76.3078 130.736 76.444 130.692C76.5809 130.647 76.7164 130.603 76.8503 130.558C76.985 130.512 77.119 130.466 77.2507 130.419C77.3839 130.372 77.5133 130.323 77.6427 130.275C77.7737 130.226 77.9046 130.176 78.0318 130.127C78.1605 130.076 78.2854 130.024 78.4103 129.972C78.5367 129.919 78.6601 129.866 78.782 129.812C78.9055 129.757 79.0296 129.703 79.1485 129.648C79.2704 129.591 79.3863 129.533 79.503 129.474C79.6211 129.416 79.7362 129.356 79.8499 129.296C79.9643 129.235 80.0794 129.174 80.1893 129.112C80.3006 129.048 80.4075 128.982 80.5144 128.916C80.6227 128.85 80.7258 128.782 80.8297 128.714C80.9079 128.661 80.9899 128.609 81.0652 128.556C81.0885 128.539 81.1103 128.52 81.1337 128.503C81.23 128.431 81.3256 128.356 81.4196 128.279C81.5107 128.203 81.6002 128.123 81.689 128.041C81.7763 127.961 81.8644 127.884 81.9494 127.797C82.0299 127.715 82.1082 127.624 82.1872 127.537C82.2655 127.45 82.3437 127.365 82.4205 127.273C82.4942 127.184 82.5657 127.09 82.6372 126.996C82.708 126.904 82.7794 126.811 82.8479 126.715C82.9156 126.621 82.9811 126.524 83.0473 126.425C83.1121 126.328 83.176 126.231 83.2392 126.13C83.3009 126.031 83.3611 125.93 83.4213 125.828C83.4808 125.727 83.5402 125.625 83.5982 125.521C83.6546 125.418 83.7103 125.313 83.766 125.208C83.8209 125.103 83.8759 124.999 83.9293 124.89C83.982 124.786 84.0331 124.677 84.0843 124.568C84.1355 124.46 84.1867 124.353 84.2363 124.242C84.2845 124.134 84.3319 124.022 84.3793 123.911C84.4267 123.8 84.4749 123.692 84.5215 123.578C84.5667 123.467 84.6088 123.351 84.6532 123.238C84.6969 123.125 84.742 123.013 84.7849 122.897C84.827 122.784 84.8677 122.667 84.9091 122.551C84.9497 122.437 84.9911 122.321 85.031 122.204C85.0701 122.087 85.1092 121.971 85.1484 121.852C85.186 121.735 85.2236 121.616 85.2605 121.497C85.2981 121.378 85.3365 121.262 85.3726 121.142C85.408 121.023 85.4411 120.901 85.4765 120.78C85.5111 120.66 85.5465 120.541 85.5796 120.419C85.6134 120.298 85.6458 120.176 85.6781 120.053C85.7105 119.932 85.7429 119.809 85.7745 119.686C85.8053 119.563 85.8377 119.442 85.8685 119.318C85.8986 119.195 85.9272 119.069 85.9566 118.945C85.9867 118.82 86.0168 118.698 86.0454 118.571C86.074 118.447 86.1011 118.321 86.1289 118.195C86.1567 118.07 86.1838 117.944 86.2102 117.817C86.2373 117.691 86.2651 117.566 86.2915 117.438C86.317 117.313 86.3411 117.183 86.366 117.055C86.3908 116.928 86.4171 116.801 86.4412 116.672L86.5127 116.286C86.536 116.159 86.5593 116.028 86.5819 115.899C86.6045 115.77 86.6286 115.642 86.6512 115.511C86.673 115.383 86.6933 115.251 86.7151 115.12L86.7783 114.728C86.7987 114.598 86.8197 114.468 86.84 114.336C86.8604 114.205 86.8784 114.071 86.898 113.94C86.9175 113.808 86.9371 113.676 86.9559 113.544L87.0116 113.146C87.0297 113.014 87.047 112.88 87.0643 112.746C87.0816 112.613 87.0997 112.481 87.117 112.347C87.1343 112.214 87.1501 112.078 87.1659 111.944L87.214 111.541C87.2298 111.407 87.2464 111.273 87.2622 111.138C87.2773 111.003 87.2908 110.866 87.3059 110.731L87.3495 110.324C87.3638 110.189 87.3781 110.053 87.3916 109.917C87.4052 109.781 87.418 109.643 87.4308 109.507C87.4443 109.37 87.4579 109.235 87.4707 109.097L87.5083 108.686L87.5436 108.273L87.5783 107.86L87.6114 107.446L87.643 107.03C87.6528 106.891 87.664 106.753 87.6746 106.614C87.6844 106.475 87.6926 106.335 87.7024 106.196L87.7303 105.777C87.7393 105.638 87.7491 105.499 87.7574 105.359C87.7664 105.219 87.7739 105.078 87.7822 104.938L87.8063 104.516L87.8296 104.095L87.8507 103.671L87.8717 103.247L87.8913 102.823L87.9094 102.397L87.9274 101.971L87.9432 101.544L87.9583 101.115L87.9726 100.687L87.9854 100.257L87.9974 99.8266L88.0087 99.3961L88.0185 98.9633L88.0275 98.5312L88.0358 98.0984L88.0426 97.6632L88.0486 97.2289L88.0539 96.7938L88.0576 96.3571L88.0614 95.9205L88.0636 95.4831L88.0651 95.0442L88.0667 94.606L88.0659 94.1664L88.0651 93.7259L88.0629 93.2855L88.0599 92.8435L88.0569 92.4016L88.0524 91.9596L88.0471 91.5161L88.0411 91.0727L88.0343 90.6277L88.026 90.1819L88.0177 89.7369L88.0087 89.2896L87.9989 88.8439L87.9876 88.395L87.9763 87.947L87.9636 87.499L87.95 87.0494L87.9365 86.5998L87.9214 86.1495L87.9064 85.6977L87.8906 85.2466L87.8733 84.7947L87.8559 84.3421L87.8364 83.8887L87.8176 83.4346L87.7972 82.9805L87.7769 82.5256L87.7551 82.0699L87.7325 81.6135L87.71 81.1571L87.6859 80.6999L87.6618 80.242L87.6362 79.7833L87.6099 79.3246L87.5835 78.8644ZM78.2304 90.7326L88.0358 98.0984L78.2304 90.7326ZM80.8718 84.8076L88.026 90.1819L80.8718 84.8076ZM81.9998 82.1407L87.9365 86.5998L81.9998 82.1407ZM85.6082 72.9873L87.269 74.2356L85.6082 72.9873Z" fill="#00838F"/>
<path fill-rule="evenodd" clip-rule="evenodd" d="M5.40806 101.635C6.27266 99.8271 5.72067 99.1422 7.21579 98.0181C8.48286 97.0661 11.094 98.2906 15.0667 99.6781C14.3417 101.808 13.4938 104.984 13.1215 106.579C11.7714 106.44 10.7255 106.54 10.0693 106.957C4.8153 110.288 2.09539 115.924 0.203847 114.435C-0.691712 113.729 2.99926 106.672 5.40806 101.635Z" fill="#212121"/>
<path fill-rule="evenodd" clip-rule="evenodd" d="M92.071 22.7917L92.0667 22.7909C94.0546 19.8818 94.3923 16.6467 94.2865 14.3723C94.2865 14.3723 93.6389 8.67216 95.8413 4.5231C98.6534 -0.773288 107.271 2.48669 108.921 5.03493C110.915 8.57104 109.951 11.621 108.711 15.6829C108.711 15.6829 108.368 19.9323 108.278 20.1789C108.148 20.5391 107.176 19.9393 107.048 20.0794C106.92 20.2194 106.193 22.4946 105.15 23.0492C104.108 23.6054 102.05 21.7564 101.486 22.3437C101.066 22.7808 99.9668 24.4727 99.9186 25.6807C97.7206 25.6807 93.981 24.8289 92.071 22.7917Z" fill="#FFF3E0"/>
<path fill-rule="evenodd" clip-rule="evenodd" d="M102.359 40.4146L103.324 38.8831L102.359 40.4146ZM102.344 49.083C103.202 48.6709 103.691 47.7949 103.915 46.6068C103.931 46.5282 103.944 46.4496 103.957 46.3687C103.969 46.2947 103.979 46.2207 103.989 46.1444C103.998 46.0765 104.004 46.0063 104.011 45.9361C104.018 45.8697 104.025 45.8018 104.03 45.7339C104.035 45.669 104.04 45.6042 104.045 45.5378C104.048 45.4767 104.051 45.4134 104.054 45.3516C104.056 45.289 104.06 45.228 104.061 45.1646C104.064 45.1066 104.064 45.0464 104.064 44.9868C104.065 44.9281 104.067 44.8701 104.067 44.8106L104.065 44.6397C104.064 44.5832 104.065 44.5267 104.064 44.4687C104.063 44.4145 104.061 44.3588 104.059 44.3039C104.057 44.2497 104.056 44.1948 104.054 44.1391L104.046 43.9781L104.038 43.8178L104.028 43.6606L104.017 43.5042C104.013 43.4523 104.01 43.4012 104.006 43.3486C104.002 43.299 103.997 43.2478 103.992 43.1967L103.979 43.0449L103.965 42.8945L103.949 42.7457L103.934 42.5977L103.916 42.4512L103.899 42.3054L103.881 42.1597L103.862 42.0162L103.843 41.8736L103.824 41.7309L103.804 41.5897L103.783 41.4485L103.762 41.3081L103.741 41.17L103.719 41.0311L103.697 40.8923L103.674 40.7557L103.651 40.6191L103.628 40.4825L103.603 40.3467L103.58 40.2116L103.555 40.0765L103.53 39.9422L103.505 39.8095L103.481 39.6752L103.455 39.5424L103.429 39.4104L103.403 39.2776L103.377 39.1456L102.527 40.4855L102.362 40.4153L102.359 40.4146L102.353 40.4123L103.324 38.8831L103.297 38.7526L103.27 38.6222L103.242 38.4924L103.215 38.3627L103.187 38.233L103.159 38.104L103.131 37.9751L103.103 37.8461L103.074 37.7179L103.046 37.5897L103.017 37.4623L102.989 37.3349L102.959 37.2074L102.93 37.08L102.901 36.9526L102.872 36.8259L102.842 36.6992L102.812 36.5733L102.782 36.4474L102.752 36.3208L102.722 36.1956L102.692 36.0697L102.662 35.9438L102.631 35.8187L102.601 35.6935L102.571 35.5684L102.54 35.444L102.509 35.3189L102.479 35.1937L102.448 35.0701L102.416 34.9457L102.386 34.8213L102.355 34.697L102.323 34.5726L102.293 34.4497L102.261 34.3254L102.23 34.2017L102.198 34.0781L102.167 33.9545L102.135 33.8309L102.104 33.7073L102.072 33.5837L102.04 33.4608L102.009 33.3372L101.977 33.2143L101.945 33.0907L101.913 32.9679L101.882 32.845L101.85 32.7214L101.819 32.5985L101.787 32.4757L101.755 32.3521L101.723 32.23L101.691 32.1064L101.659 31.9835L101.627 31.8607L101.596 31.7378L101.564 31.615L101.532 31.4921L101.5 31.3685L101.468 31.2456L101.436 31.122L101.405 30.9992L101.373 30.8763L101.341 30.7527L101.31 30.6298L101.278 30.5062L101.246 30.3826L101.215 30.259L101.184 30.1361L101.152 30.0125L101.121 29.8882L101.09 29.7645L101.059 29.6402L101.028 29.5165L100.996 29.3922L100.966 29.2678L100.935 29.1426L100.905 29.0183L100.874 28.8931L100.843 28.768L100.813 28.6421L100.783 28.5169L100.753 28.3918L100.723 28.2651L100.693 28.1385L100.664 28.0125L100.635 27.8851L100.606 27.7577L100.576 27.6303L100.548 27.5021L100.519 27.3739L100.491 27.2449L100.464 27.116L100.436 26.9862L100.409 26.855L100.383 26.7245L100.356 26.5933L100.33 26.4605L100.304 26.3277L100.279 26.1942L100.255 26.0591L100.241 25.982C100.237 25.9622 100.234 25.9424 100.232 25.9218C100.226 25.8706 100.223 25.8172 100.223 25.763C100.223 25.7012 100.227 25.6371 100.234 25.5723L100.245 25.4975L100.177 25.4891L100.076 25.4754L99.9753 25.4616L99.8743 25.4464L99.7747 25.4311L99.6752 25.4143L99.5764 25.3968L99.4784 25.3785L99.3797 25.3601L99.2824 25.3403L99.1852 25.3205L99.0887 25.2999L98.9922 25.2785L98.8964 25.2564L98.8007 25.2335L98.705 25.2106L98.6108 25.1869L98.5158 25.1625L98.4216 25.1381L98.3274 25.1129L98.2347 25.087L98.1405 25.061L98.0485 25.0343L97.9559 25.0068L97.8632 24.9794L97.7712 24.9504L97.6801 24.9221L97.5881 24.8932L97.497 24.8634L97.4065 24.8329L97.3161 24.8023L97.2257 24.7711L97.1361 24.739L97.0472 24.707L96.9575 24.6749L96.8686 24.6413L96.7797 24.6078L96.6916 24.5742L96.6035 24.5391L96.5161 24.5048L96.4287 24.4689L96.3413 24.433L96.2547 24.3964L96.1681 24.3598L96.0823 24.3224L95.9964 24.2842L95.9106 24.2461L95.8255 24.2072L95.7404 24.1675L95.656 24.127L95.5717 24.0866L95.4881 24.0462L95.4046 24.0042L95.3217 23.9622L95.2382 23.9195L95.1561 23.8768L95.0741 23.8325L94.992 23.7882L94.9107 23.7432L94.8294 23.6982L94.7489 23.6517L94.6683 23.6051L94.5893 23.5578L94.5088 23.5097L94.4298 23.4609L94.3515 23.4121L94.2733 23.3625L94.195 23.3113L94.1183 23.261L94.0408 23.2083L93.9648 23.1557L93.8888 23.1022L93.8136 23.0481L93.7384 22.9931L93.6632 22.9374L93.5895 22.881L93.5158 22.8237L93.4428 22.7657L93.3707 22.7062L93.2985 22.6467L93.2278 22.5857L93.1572 22.5238L93.0873 22.4613L93.0174 22.3972L92.949 22.3323L92.8806 22.2667L92.8138 22.1988L92.7469 22.1309L92.6816 22.0614L92.6162 21.9912L92.5516 21.9187L92.4886 21.8455L92.4263 21.7707L92.3647 21.6944L92.3549 21.6822L92.3503 21.6807C92.2941 21.7257 92.2363 21.7699 92.1786 21.8142C92.1102 21.8669 92.0403 21.9187 91.9697 21.9706C91.9028 22.0195 91.8352 22.0683 91.766 22.1171C91.7007 22.1637 91.6346 22.2102 91.5677 22.256L91.374 22.3888L91.1825 22.517L90.9934 22.6414C89.7321 23.4662 88.2491 24.3239 86.7683 25.4807C80.0322 30.7382 75.7221 42.381 68.1707 58.5846L68.0667 58.8074L68.1214 58.8356L68.2049 58.8776L68.2877 58.9203L68.3706 58.9631L68.4534 59.0058L68.5362 59.0478L68.619 59.0905L68.7018 59.1325L68.7846 59.1752L68.8682 59.2179L68.951 59.2599L69.0338 59.3026L69.1166 59.3454L69.283 59.4301L69.3659 59.4728L69.4487 59.5148L69.5315 59.5575L69.6143 59.6002L69.6971 59.6422L69.7807 59.6849L69.8635 59.7277L69.9463 59.7696L70.0291 59.8124L70.1119 59.8551L70.1948 59.8971L70.2783 59.9398L70.3611 59.9825L70.444 60.0245L70.5268 60.0672L70.6096 60.11L70.6932 60.1527L70.7752 60.1947L70.8588 60.2374L70.9416 60.2801L71.0244 60.3221L71.1072 60.3648L71.19 60.4076L71.2736 60.4495L71.3564 60.4923L71.4393 60.535L71.5221 60.577L71.6049 60.6197L71.6885 60.6624L71.7713 60.7044L71.8541 60.7471L71.9369 60.7898L72.0197 60.8318L72.1025 60.8745L72.1861 60.9173L72.2689 60.9592L72.3517 61.002L72.4345 61.0447L72.5174 61.0867L72.6002 61.1294L72.683 61.1721L72.7666 61.2141L72.8494 61.2568L72.9322 61.2996L73.015 61.3423L73.0986 61.3843L73.1814 61.427L73.2642 61.469L73.347 61.5117L73.4298 61.5544L73.5127 61.5964L73.5962 61.6391L73.6783 61.6811L73.8447 61.7666L73.9275 61.8093L74.0103 61.852L74.0939 61.894L74.1767 61.9367L74.2595 61.9787L74.3423 62.0214L74.4251 62.0642L74.5079 62.1061L74.5915 62.1489L74.6743 62.1916L74.7572 62.2336L74.84 62.2763L74.9228 62.319L75.0064 62.3618L75.0884 62.4037L75.172 62.4465L75.2548 62.4884L75.3376 62.5312L75.4204 62.5739L75.5032 62.6166L75.5861 62.6586L75.6696 62.7013L75.7524 62.744L75.8353 62.786L75.9181 62.8287L76.0016 62.8715L76.0845 62.9134L76.1673 62.9562L76.2501 62.9989L76.3329 63.0409L76.4157 63.0836L76.4993 63.1263L76.5813 63.1683L76.6649 63.211L76.7477 63.253L76.8306 63.2957L76.9134 63.3385L76.9962 63.3812L77.0798 63.4232L77.1618 63.4659L77.2454 63.5086L77.3282 63.5506L77.4118 63.5933L77.4946 63.6361L77.5774 63.678L77.6602 63.7208L77.743 63.7635L77.8258 63.8055L77.9094 63.8482L77.9915 63.8909L78.0751 63.9329L78.1579 63.9756L78.2407 64.0184L78.3235 64.0603L78.4063 64.1031L78.4899 64.1458L78.5727 64.1878L78.6555 64.2305L78.7383 64.2732L78.8211 64.3152L78.904 64.3579L78.9875 64.4007L79.0703 64.4426L79.1532 64.4854L79.236 64.5281L79.3195 64.5708L79.4016 64.6128L79.568 64.6982L79.6508 64.7402L79.7336 64.7829L79.8164 64.8249L79.8992 64.8676L79.9821 64.9104L80.0656 64.9523L80.1485 64.9951L80.2313 65.0378L80.3141 65.0805L80.3977 65.1225L80.4797 65.1652L80.5633 65.208L80.6461 65.2499L80.7289 65.2927L80.8117 65.3354L80.8945 65.3774L80.9781 65.4201L81.0609 65.4628L81.1437 65.5048L81.2266 65.5475L81.3094 65.5895L81.3929 65.633L81.4758 65.675L81.5586 65.7169L81.6414 65.7597L81.7242 65.8024L81.807 65.8451L81.8906 65.8871L81.9734 65.9298L82.0562 65.9726L82.139 66.0145L82.2219 66.0573L82.3047 66.1L82.3875 66.142L82.4711 66.1847L82.5539 66.2274L82.6367 66.2694L82.7195 66.3121L82.8023 66.3549L82.8851 66.3968L82.9687 66.4396L83.0515 66.4823L83.1343 66.5243L83.3 66.6097L83.3835 66.6517L83.4664 66.6944L83.5492 66.7371L83.632 66.7791L83.7148 66.8218L83.7976 66.8646L83.8812 66.9065L83.964 66.9493L84.0468 66.992L84.1296 67.0347L84.2124 67.0767L84.2953 67.1194L84.4616 67.2041L84.5445 67.2469L84.6273 67.2896L84.7101 67.3316L84.7929 67.3743L84.8765 67.417L84.9593 67.459L85.0421 67.5017L85.2077 67.5864L85.3308 67.6498L85.3741 67.6711L85.4569 67.7139L85.5398 67.7566L85.6226 67.7993L85.7054 67.8413L85.7882 67.884L85.8718 67.9268L85.9546 67.9687L86.0374 68.0115L86.1202 68.0534L86.203 68.0962L86.2866 68.1389L86.3694 68.1816L86.4522 68.2236L86.535 68.2663L86.6179 68.3083L86.7007 68.351L86.7843 68.3938L86.8671 68.4357L86.9499 68.4785L87.0327 68.5212L87.1155 68.5639L87.1983 68.6059L87.2811 68.6486L87.345 68.6807C87.3488 68.6295 87.3548 68.5784 87.3594 68.5265L87.3776 68.3236L87.3989 68.1175L87.4232 67.9062C87.4323 67.8344 87.4399 67.7635 87.449 67.6925C87.4589 67.6185 87.4696 67.5452 87.4794 67.4712C87.4901 67.3972 87.4992 67.3232 87.5106 67.2499C87.522 67.1721 87.5357 67.095 87.5478 67.0172C87.5607 66.9394 87.5729 66.8615 87.5858 66.7837C87.6002 66.7028 87.6162 66.6219 87.6306 66.541C87.6466 66.4586 87.6618 66.3755 87.6777 66.2938C87.6952 66.2076 87.7127 66.1221 87.7309 66.0367C87.7499 65.9481 87.7689 65.8604 87.7887 65.7726C87.8092 65.6818 87.8304 65.5903 87.8517 65.4995C87.8745 65.4041 87.8988 65.3095 87.9231 65.2148C87.9482 65.1156 87.974 65.0172 88.0006 64.9195C88.0287 64.8165 88.0569 64.7143 88.0857 64.612C88.1176 64.5021 88.1511 64.393 88.1845 64.2847C88.2202 64.1679 88.2567 64.0535 88.2939 63.9382C88.3342 63.8154 88.3752 63.6933 88.417 63.5712C88.4633 63.4377 88.5112 63.3049 88.5598 63.1729C88.6145 63.0264 88.67 62.8806 88.7277 62.7364C88.7923 62.5716 88.8599 62.4083 88.9291 62.2458C89.0111 62.0527 89.0962 61.8612 89.1836 61.6719C89.2383 61.5529 89.2945 61.4354 89.3507 61.3179L91.7569 57.4888L91.7866 57.4423L91.9013 57.2599L91.9241 57.2309C92.0464 57.0753 92.171 56.9211 92.2964 56.7693C92.4384 56.5984 92.582 56.4297 92.7279 56.2634C92.854 56.1191 92.9809 55.9757 93.1093 55.8353C93.2225 55.7117 93.3365 55.5896 93.452 55.4683C93.5583 55.3568 93.6655 55.247 93.7726 55.1371C93.8721 55.0364 93.9724 54.9356 94.0734 54.8364C94.1684 54.7426 94.2641 54.6503 94.3599 54.5587C94.451 54.4709 94.5422 54.3847 94.6342 54.3C94.7215 54.2184 94.8097 54.1375 94.8978 54.0574C94.9829 53.9803 95.068 53.904 95.1531 53.8284C95.2359 53.7552 95.3179 53.6827 95.4008 53.611C95.4805 53.5423 95.5611 53.4736 95.6416 53.4057C95.7191 53.3401 95.7966 53.2752 95.8749 53.2104C95.9516 53.147 96.0276 53.0845 96.1043 53.0226C96.1795 52.9616 96.2547 52.9006 96.33 52.841L96.5488 52.6686C96.6209 52.6129 96.6924 52.5572 96.7645 52.5022L96.9773 52.3405C97.0472 52.2886 97.1163 52.2359 97.1862 52.184L97.3913 52.0345L97.5934 51.8887C97.6603 51.8414 97.7272 51.7934 97.794 51.7468C97.8594 51.701 97.9247 51.656 97.99 51.611L98.1853 51.4767L98.3783 51.347L98.5667 51.2218L98.7551 51.0982L98.9413 50.9784L99.1251 50.8617L99.3075 50.7472L99.4883 50.6366C99.5483 50.5999 99.6076 50.5633 99.6676 50.5274L99.8439 50.4221L100.019 50.3184L100.194 50.2169L100.367 50.1184L100.538 50.0215L100.708 49.9269L100.877 49.8338L101.044 49.7438L101.211 49.6553L101.376 49.5683L101.539 49.4836L101.702 49.3996L101.864 49.318L102.024 49.2386L102.184 49.1608L102.343 49.083H102.344Z" fill="#B2EBF2"/>
<path fill-rule="evenodd" clip-rule="evenodd" d="M20.3057 134.15C20.4031 132.943 19.9979 131.944 20.5806 131.25C21.6418 129.984 23.9957 130.045 27.7029 129.681C27.765 132.223 28.3844 135.017 29.0667 136.981C27.9238 137.416 27.1277 137.913 26.7652 138.494C23.4265 143.856 23.3696 149.662 21.0015 149.681C19.938 149.689 19.8991 139.201 20.3057 134.15Z" fill="#212121"/>
<path fill-rule="evenodd" clip-rule="evenodd" d="M89.0114 26.7832C91.8932 24.5453 95.0782 25.9913 97.1422 28.6443C100.263 32.6554 110.481 41.7559 113.945 43.2147C118.751 45.2383 138.729 47.0483 140.577 46.546C142.426 46.0437 142.9 45.4556 143.743 45.1631C144.118 45.0322 146.825 44.1607 146.896 44.4465C146.965 44.7322 144.3 45.797 144.538 46.5054C144.776 47.2145 152.873 47.88 152.001 49.1952C151.13 50.5112 147.917 53.0799 143.909 52.628C141.23 52.3265 138.982 50.7872 137.273 50.8338C127.549 51.0962 116.41 51.5091 110.954 49.1072L110.953 49.111C104.021 46.1843 92.4247 36.759 90.2576 34.1338C88.0898 31.5079 87.2651 28.139 89.0114 26.7832Z" fill="#FFF3E0"/>
<path fill-rule="evenodd" clip-rule="evenodd" d="M102.912 0.900784C96.5755 -0.204311 92.0112 2.84926 90.3233 10.1151C89.2726 14.6388 85.0519 16.7495 81.5414 16.3278C78.0294 15.9062 74.2446 9.73766 67.3082 15.3276C63.3893 18.4868 62.2723 22.1725 64.8722 24.2608C66.118 25.261 61.9621 28.4373 63.3566 30.649C66.6392 35.8507 71.3468 29.4554 75.5492 29.1743C79.5717 28.9056 87.2762 33.0184 94.6149 23.8142V23.8103C96.2318 21.8774 97.259 19.5391 97.4937 17.3895C97.7284 15.2398 99.6227 13.9056 102.102 14.749C104.861 15.6856 107.735 14.975 110.032 7.97401C110.403 5.23652 107.773 1.7496 102.912 0.900784Z" fill="#212121"/>
</svg>
