<svg width="100" height="156" viewBox="0 0 100 156" fill="none" xmlns="http://www.w3.org/2000/svg">
<path fillRule="evenodd" clipRule="evenodd" d="M22.8636 51.4734C18.9702 53.2379 16.8743 57.8447 17.1372 62.116C17.2509 64.6042 18.0821 66.9801 18.1319 69.3973C18.2029 73.0223 16.6115 75.7992 12.647 75.4359C11.0271 75.2298 9.41437 74.6013 7.8016 74.2551C6.11068 73.9046 4.26345 73.8321 2.87803 74.7734C2.08231 75.2397 1.48551 76.0708 1.03081 76.9047C-0.425658 79.6169 -0.134365 83.1083 1.25105 85.8617C2.70042 88.6834 5.03076 90.9051 7.58846 92.7073C9.58489 94.1348 11.3966 95.0555 13.393 96.6927C14.2172 97.3653 15.0981 98.4644 14.5724 99.3673C14.2598 99.995 13.4712 100.177 12.7678 100.009C12.1355 99.8407 11.5884 99.3943 11.1124 98.8796C9.86907 97.8359 8.71101 96.6551 7.24033 96.102C5.70571 95.4742 3.78033 95.6868 2.80699 96.9984C2.13204 97.9667 2.15335 99.1746 2.25282 100.383C2.90645 105.522 5.91885 110.181 9.83355 113.669C12.9241 116.346 16.5333 118.403 20.2278 120.106C24.2703 121.966 26.4586 122.334 30.6504 120.363C30.7925 120.298 30.9346 120.232 31.0127 120.164C36.2205 117.596 38.7853 113.72 42.7 109.68C44.5472 107.692 46.5436 105.711 47.4885 103.12C48.1209 101.509 48.334 99.6722 47.6164 98.0833C46.8917 96.4937 45.0232 95.4259 43.3678 96.0024C42.0676 96.4489 41.0943 97.8324 39.7373 97.9937C36.0997 98.6322 35.7516 92.7961 36.4833 90.4821C37.549 86.7611 42.1387 85.5873 44.7106 83.2014C47.0623 81.09 48.1138 77.7223 47.5241 74.6461C47.4672 74.2167 47.3465 73.788 47.0694 73.493C46.6573 73.1219 46.096 73.0294 45.5276 73.0088C44.604 72.9704 43.5383 73.1425 42.5366 73.3174C40.8172 73.6778 39.0339 73.9665 37.6414 73.129C36.327 72.2979 34.7001 70.4616 33.8972 69.0809C31.6521 64.804 35.105 59.8261 33.5704 55.4354C32.5473 52.4829 29.4213 50.7319 26.2312 50.6807C25.0945 50.7048 23.9506 50.9451 22.8636 51.4734Z" fill="#F8BBD0"/>
<path fillRule="evenodd" clipRule="evenodd" d="M29.4287 160.681H20.828V110.799L18.0667 107.89L19.2857 106.606L20.828 108.231V89.8291L18.0667 86.92L19.2857 85.6357L20.828 87.2606V70.6807H29.4287V94.5252L37.8476 85.6357L39.0667 86.92L29.4287 97.0937V115.495L37.8476 106.606L39.0667 107.89L29.4287 118.064V160.681Z" fill="#E91E63"/>
<path fillRule="evenodd" clipRule="evenodd" d="M63.8812 1.66248C58.488 4.20638 55.4761 10.6562 55.8375 16.5934C56.0501 20.0547 57.1628 23.341 57.2832 26.7031C57.3612 31.8419 55.1997 35.7414 49.6789 35.1218C47.319 34.8722 45.0653 34.0299 42.8046 33.4818C40.5509 33.0373 37.9854 32.9784 35.9798 34.215C34.8742 34.9814 34.0592 36.0499 33.4427 37.2204C31.3804 41.0242 31.7631 45.8759 33.7474 49.7719C35.7318 53.6714 39.0201 56.7116 42.6132 59.1634C45.4338 61.2039 47.971 62.546 50.6782 64.7815C51.8475 65.699 53.0948 67.2084 52.372 68.5747C51.8617 69.3553 50.7703 69.6261 49.7852 69.4035C48.8994 69.188 48.1269 68.479 47.4536 67.8692C45.8094 66.3491 44.1653 64.7298 42.11 63.9938C39.9556 63.1515 37.2838 63.3883 35.9585 65.2331C35.0443 66.4966 35.0018 68.2769 35.1577 69.9579C36.079 77.0926 40.2816 83.6119 45.696 88.4764C50.0545 92.2327 55.0225 95.112 60.2031 97.5013C65.8727 100.103 68.9201 100.569 74.7101 97.8367C74.9086 97.7409 75.107 97.6488 75.3054 97.5531C82.4987 93.9648 86.0776 88.614 91.5417 82.91C94.171 80.2052 96.9065 77.3018 98.2743 73.7788C99.1106 71.5263 99.4649 68.9653 98.4302 66.7674C97.3955 64.5688 94.7663 63.0281 92.4772 63.7648C90.6842 64.415 89.3589 66.3597 87.4738 66.6129C82.3144 67.4828 81.9105 59.3754 82.8743 56.2359C84.3768 51.0318 90.7338 49.3033 94.3694 45.927C97.5869 43.0378 99.1814 38.3336 98.2885 34.0639C98.2034 33.4684 98.0192 32.8728 97.6365 32.4687C97.0554 31.9617 96.2687 31.8455 95.475 31.8249C94.1993 31.6987 92.711 31.9617 91.322 32.2255C88.9408 32.6637 86.4674 33.1018 84.5114 31.9688C82.6688 30.8422 80.3584 28.2196 79.3167 26.2202C76.0921 20.3178 80.9892 13.4156 78.8631 7.24304C77.3748 3.05921 72.988 0.686887 68.5444 0.683342C66.9641 0.645765 65.3766 1.00523 63.8812 1.66248Z" fill="#B2EBF2"/>
<path fillRule="evenodd" clipRule="evenodd" d="M68.4886 160.681H59.2544V81.3725L52.0667 74.3255L53.3755 73.0446L59.2544 78.8108V52.1263L52.0667 45.0778L53.3755 43.7969L59.2544 49.5631V22.6807H68.4886V56.8129L81.765 43.7969L83.0667 45.0778L68.4886 59.3775V86.0606L81.765 73.0446L83.0667 74.3255L68.4886 88.6224V160.681Z" fill="#00BCD4"/>
</svg>
