<svg width="73" height="72" viewBox="0 0 73 72" fill="none" xmlns="http://www.w3.org/2000/svg">
<rect x="0.87793" width="72" height="72" rx="36" fill="#0090A6"/>
<path d="M51.1666 49.104H22.8333C22.2524 49.104 21.7708 49.5857 21.7708 50.1665C21.7708 50.7473 22.2524 51.229 22.8333 51.229H51.1666C51.7474 51.229 52.2291 50.7473 52.2291 50.1665C52.2291 49.5857 51.7474 49.104 51.1666 49.104Z" fill="white"/>
<path d="M44.0833 21.8335H29.9167C25.6667 21.8335 24.25 24.3693 24.25 27.5002V50.1668H49.75V27.5002C49.75 24.3693 48.3333 21.8335 44.0833 21.8335ZM34.1667 43.4377H29.9167C29.3358 43.4377 28.8542 42.956 28.8542 42.3752C28.8542 41.7943 29.3358 41.3127 29.9167 41.3127H34.1667C34.7475 41.3127 35.2292 41.7943 35.2292 42.3752C35.2292 42.956 34.7475 43.4377 34.1667 43.4377ZM34.1667 37.0627H29.9167C29.3358 37.0627 28.8542 36.581 28.8542 36.0002C28.8542 35.4193 29.3358 34.9377 29.9167 34.9377H34.1667C34.7475 34.9377 35.2292 35.4193 35.2292 36.0002C35.2292 36.581 34.7475 37.0627 34.1667 37.0627ZM34.1667 30.6877H29.9167C29.3358 30.6877 28.8542 30.206 28.8542 29.6252C28.8542 29.0443 29.3358 28.5627 29.9167 28.5627H34.1667C34.7475 28.5627 35.2292 29.0443 35.2292 29.6252C35.2292 30.206 34.7475 30.6877 34.1667 30.6877ZM44.0833 43.4377H39.8333C39.2525 43.4377 38.7708 42.956 38.7708 42.3752C38.7708 41.7943 39.2525 41.3127 39.8333 41.3127H44.0833C44.6642 41.3127 45.1458 41.7943 45.1458 42.3752C45.1458 42.956 44.6642 43.4377 44.0833 43.4377ZM44.0833 37.0627H39.8333C39.2525 37.0627 38.7708 36.581 38.7708 36.0002C38.7708 35.4193 39.2525 34.9377 39.8333 34.9377H44.0833C44.6642 34.9377 45.1458 35.4193 45.1458 36.0002C45.1458 36.581 44.6642 37.0627 44.0833 37.0627ZM44.0833 30.6877H39.8333C39.2525 30.6877 38.7708 30.206 38.7708 29.6252C38.7708 29.0443 39.2525 28.5627 39.8333 28.5627H44.0833C44.6642 28.5627 45.1458 29.0443 45.1458 29.6252C45.1458 30.206 44.6642 30.6877 44.0833 30.6877Z" fill="white"/>
</svg>
