<svg width="73" height="72" viewBox="0 0 73 72" fill="none" xmlns="http://www.w3.org/2000/svg">
<rect x="0.87793" width="72" height="72" rx="36" fill="#0090A6"/>
<path d="M49.0895 30.9721C47.602 24.4271 41.8928 21.4805 36.8778 21.4805C36.8778 21.4805 36.8778 21.4805 36.8637 21.4805C31.8628 21.4805 26.1395 24.413 24.652 30.958C22.9945 38.268 27.4712 44.4588 31.5228 48.3546C33.0245 49.7996 34.9512 50.5221 36.8778 50.5221C38.8045 50.5221 40.7312 49.7996 42.2187 48.3546C46.2703 44.4588 50.747 38.2821 49.0895 30.9721ZM36.8778 38.0696C34.4128 38.0696 32.4153 36.0721 32.4153 33.6071C32.4153 31.1421 34.4128 29.1446 36.8778 29.1446C39.3428 29.1446 41.3403 31.1421 41.3403 33.6071C41.3403 36.0721 39.3428 38.0696 36.8778 38.0696Z" fill="white"/>
</svg>
