<svg width="73" height="72" viewBox="0 0 73 72" fill="none" xmlns="http://www.w3.org/2000/svg">
<rect x="0.87793" width="72" height="72" rx="36" fill="#0090A6"/>
<path d="M51.8779 45.4888C51.8779 46.0296 51.7577 46.5855 51.5024 47.1263C51.247 47.6671 50.9165 48.1779 50.4808 48.6586C49.7447 49.4698 48.9335 50.0557 48.0171 50.4312C47.1158 50.8068 46.1393 51.0021 45.0877 51.0021C43.5554 51.0021 41.918 50.6416 40.1904 49.9055C38.4628 49.1694 36.7352 48.1779 35.0226 46.931C33.2951 45.6691 31.6576 44.272 30.0953 42.7247C28.5479 41.1623 27.1508 39.5249 25.904 37.8123C24.6721 36.0997 23.6806 34.3872 22.9596 32.6896C22.2385 30.9771 21.8779 29.3396 21.8779 27.7773C21.8779 26.7557 22.0582 25.7793 22.4187 24.8779C22.7793 23.9615 23.3501 23.1203 24.1463 22.3691C25.1078 21.4227 26.1594 20.957 27.271 20.957C27.6917 20.957 28.1123 21.0472 28.4878 21.2274C28.8784 21.4077 29.2239 21.6781 29.4944 22.0687L32.9796 26.9811C33.25 27.3566 33.4453 27.7021 33.5805 28.0326C33.7157 28.3481 33.7908 28.6636 33.7908 28.949C33.7908 29.3096 33.6856 29.6701 33.4753 30.0156C33.28 30.3611 32.9946 30.7217 32.6341 31.0822L31.4924 32.269C31.3271 32.4342 31.252 32.6295 31.252 32.8699C31.252 32.9901 31.267 33.0952 31.2971 33.2154C31.3421 33.3356 31.3872 33.4257 31.4172 33.5159C31.6876 34.0116 32.1533 34.6576 32.8143 35.4388C33.4903 36.2199 34.2114 37.0161 34.9926 37.8123C35.8038 38.6085 36.585 39.3446 37.3812 40.0206C38.1624 40.6816 38.8083 41.1323 39.3191 41.4027C39.3942 41.4327 39.4843 41.4778 39.5895 41.5229C39.7097 41.5679 39.8299 41.583 39.9651 41.583C40.2204 41.583 40.4157 41.4928 40.581 41.3276L41.7227 40.2009C42.0983 39.8253 42.4588 39.5399 42.8043 39.3596C43.1498 39.1493 43.4954 39.0442 43.8709 39.0442C44.1563 39.0442 44.4568 39.1043 44.7873 39.2395C45.1178 39.3747 45.4633 39.57 45.8389 39.8253L50.8113 43.3556C51.2019 43.626 51.4723 43.9415 51.6376 44.3171C51.7878 44.6926 51.8779 45.0682 51.8779 45.4888Z" fill="white"/>
</svg>
