<svg width="73" height="72" viewBox="0 0 73 72" fill="none" xmlns="http://www.w3.org/2000/svg">
<rect x="0.87793" width="72" height="72" rx="36" fill="#0090A6"/>
<path d="M27.8779 37.5C23.7379 37.5 20.3779 40.845 20.3779 45C20.3779 49.155 23.7379 52.5 27.8779 52.5C32.0179 52.5 35.3779 49.14 35.3779 45C35.3779 40.86 32.0329 37.5 27.8779 37.5ZM24.8179 41.94H27.8779C28.4479 41.94 28.8979 42.405 28.8979 42.96C28.8979 43.515 28.4479 43.98 27.8779 43.98H24.8179C24.2479 43.98 23.7979 43.515 23.7979 42.96C23.7979 42.405 24.2479 41.94 24.8179 41.94ZM30.9379 48.06H24.8179C24.2479 48.06 23.7979 47.595 23.7979 47.04C23.7979 46.485 24.2629 46.02 24.8179 46.02H30.9529C31.5229 46.02 31.9729 46.485 31.9729 47.04C31.9729 47.595 31.5079 48.06 30.9379 48.06Z" fill="white"/>
<path d="M44.3779 22.5H29.3779C24.8779 22.5 21.8779 24.75 21.8779 30V34.71C21.8779 35.805 23.0029 36.495 24.0079 36.06C25.6579 35.34 27.5329 35.07 29.4979 35.385C33.4279 36.03 36.6379 39.135 37.4329 43.035C37.6579 44.175 37.6879 45.285 37.5379 46.35C37.4179 47.235 38.1379 48.015 39.0229 48.015H44.3779C48.8779 48.015 51.8779 45.765 51.8779 40.515V30C51.8779 24.75 48.8779 22.5 44.3779 22.5ZM45.0829 30.885L40.3879 34.635C39.3979 35.43 38.1379 35.82 36.8779 35.82C35.6179 35.82 34.3429 35.43 33.3679 34.635L28.6729 30.885C28.1929 30.495 28.1179 29.775 28.4929 29.295C28.8829 28.815 29.5879 28.725 30.0679 29.115L34.7629 32.865C35.9029 33.78 37.8379 33.78 38.9779 32.865L43.6729 29.115C44.1529 28.725 44.8729 28.8 45.2479 29.295C45.6379 29.775 45.5629 30.495 45.0829 30.885Z" fill="white"/>
</svg>
