<svg width="104" height="104" viewBox="0 0 104 104" fill="none" xmlns="http://www.w3.org/2000/svg">
<circle cx="1.67388" cy="1.67388" r="1.67388" fill="#0090A6"/>
<circle cx="1.67388" cy="21.7598" r="1.67388" fill="#0090A6"/>
<circle cx="1.67388" cy="41.8467" r="1.67388" fill="#0090A6"/>
<circle cx="1.67388" cy="61.9336" r="1.67388" fill="#0090A6"/>
<circle cx="1.67388" cy="82.0196" r="1.67388" fill="#0090A6"/>
<circle cx="1.67388" cy="102.106" r="1.67388" fill="#0090A6"/>
<circle cx="21.7601" cy="1.67388" r="1.67388" fill="#0090A6"/>
<circle cx="21.7601" cy="21.7598" r="1.67388" fill="#0090A6"/>
<circle cx="21.7601" cy="41.8467" r="1.67388" fill="#0090A6"/>
<circle cx="21.7601" cy="61.9336" r="1.67388" fill="#0090A6"/>
<circle cx="21.7601" cy="82.0196" r="1.67388" fill="#0090A6"/>
<circle cx="21.7601" cy="102.106" r="1.67388" fill="#0090A6"/>
<circle cx="41.847" cy="1.67388" r="1.67388" fill="#0090A6"/>
<circle cx="41.8472" cy="21.7598" r="1.67388" fill="#0090A6"/>
<circle cx="41.847" cy="41.8467" r="1.67388" fill="#0090A6"/>
<circle cx="41.847" cy="61.9336" r="1.67388" fill="#0090A6"/>
<circle cx="41.8472" cy="82.0196" r="1.67388" fill="#0090A6"/>
<circle cx="41.847" cy="102.106" r="1.67388" fill="#0090A6"/>
<circle cx="61.9334" cy="1.67388" r="1.67388" fill="#0090A6"/>
<circle cx="61.9332" cy="21.7598" r="1.67388" fill="#0090A6"/>
<circle cx="61.9334" cy="41.8467" r="1.67388" fill="#0090A6"/>
<circle cx="61.9334" cy="61.9336" r="1.67388" fill="#0090A6"/>
<circle cx="61.9332" cy="82.0196" r="1.67388" fill="#0090A6"/>
<circle cx="61.9334" cy="102.106" r="1.67388" fill="#0090A6"/>
<circle cx="82.0203" cy="1.67388" r="1.67388" fill="#0090A6"/>
<circle cx="82.0201" cy="21.7598" r="1.67388" fill="#0090A6"/>
<circle cx="82.0203" cy="41.8467" r="1.67388" fill="#0090A6"/>
<circle cx="82.0203" cy="61.9336" r="1.67388" fill="#0090A6"/>
<circle cx="82.0201" cy="82.0196" r="1.67388" fill="#0090A6"/>
<circle cx="82.0203" cy="102.106" r="1.67388" fill="#0090A6"/>
<circle cx="102.106" cy="1.67388" r="1.67388" fill="#0090A6"/>
<circle cx="102.106" cy="21.7598" r="1.67388" fill="#0090A6"/>
<circle cx="102.106" cy="41.8467" r="1.67388" fill="#0090A6"/>
<circle cx="102.106" cy="61.9336" r="1.67388" fill="#0090A6"/>
<circle cx="102.106" cy="82.0196" r="1.67388" fill="#0090A6"/>
<circle cx="102.106" cy="102.106" r="1.67388" fill="#0090A6"/>
</svg>
